<svg id="Layer_1" data-name="Layer 1" xmlns="http://www.w3.org/2000/svg" viewBox="0 0 1024.19 1024.19"><defs><style>.cls-1{fill:#fefefe;}.cls-2{fill:#f7e7d4;}.cls-3{fill:#f6e7d3;}.cls-4{fill:#f7e9d6;}.cls-5{fill:#dc9a97;}.cls-6{fill:#dfaba2;}.cls-7{fill:#e6b7ae;}.cls-8{fill:#7a595a;}.cls-9{fill:#cea9a0;}.cls-10{fill:#e9cbbc;}.cls-11{fill:#cc817f;}.cls-12{fill:#a56d6c;}.cls-13{fill:#f4e3d0;}.cls-14{fill:#faedd9;}.cls-15{fill:#fcfbfb;}.cls-16{fill:#fdfdfd;}</style></defs><title>LOGO HOW BZZAR</title><path class="cls-1" d="M-99,392.28q0-253.75-.09-507.5c0-3.75.84-4.6,4.59-4.6q507.5.15,1015,0c3.75,0,4.59.85,4.59,4.6q-.15,507.5,0,1015c0,3.74-.84,4.59-4.59,4.59q-507.5-.15-1015,0c-3.75,0-4.6-.84-4.59-4.59Q-98.94,646-99,392.28Zm573.58-76c.19-.53.39-1.05.59-1.58l1.82-.78c1,1.23,2,1.32,2.95,0l2.9-.16c7.78-3,14.61.85,21.75,2.89,6.11,1.75,11.29,5.48,17.34,7.37a153.72,153.72,0,0,1,21.94,9.05c7.83,3.85,15.22,8.74,23.66,11.2,6.16,1.8,9.1-.65,9.32-7l0-2.1c-.29-4.65,1.51-9.52-1.52-13.86a19,19,0,0,0,.36-2.46q0-28.65,0-57.3c0-1.16.07-2.34-.84-3.27,0-4.22,0-8.43.1-12.65,0-2.06-.38-3.59-2.94-3.27l-2.4,0a13.16,13.16,0,0,0-10.09-.35c-8.81,3.68-17.38,8-26.17,11.69a27.31,27.31,0,0,0-11.29,8.57l-2.49.18a15.18,15.18,0,0,0-5.28.72c-6.52,1.85-12.24,5.41-18.26,8.31a1.87,1.87,0,0,0-2.07.87l-2,0-2.2-2.15c-1.33-3.22.18-6.72-.95-10,0-1.36,0-2.71,0-4.07,1.13-3.26-.73-6.19-1.1-9.28-.27-2.28-1.9-2.8-3.93-2.53l-3.87,0-3-.11c-4.16-.2-8.06,1-12,2.1h-9a3.47,3.47,0,0,0-5,0l-5-.18-1-.93c-.18-1.36-.37-2.72-.55-4.08,1.77-.73,1.66-1.75.45-2.94l1.05-3c2.54-1.94,5-2.22,8.19-1a19.93,19.93,0,0,0,14.6-.49c6.11-2.42,12.13-5,18.26-7.42,7.63-2.95,16.34-14.87,15.94-22.06,0-.65-.09-1.29-.14-1.94l-.18-7.95q.15-10.05.29-20.09c1.16-2.31.23-3.9-1.76-5.13-.06-1.62-.12-3.24-.19-4.86a8.23,8.23,0,0,0-4-8.94c-.11-.3-.22-.6-.34-.9a4.93,4.93,0,0,0-3.49-5.3c0-.29-.1-.59-.17-.88a7.78,7.78,0,0,0-2.9-7.09c-6.36-5.12-11.27-11.67-17.25-17.12-2.06-1.87-4.08-5-7.84-3.72l-2.89-.19c-2.26-3.06-5.51-4.25-9.1-4.79a7.25,7.25,0,0,0-.86-.48c-.78-1.66-1.55-1.57-2.31,0h-4.78a8.81,8.81,0,0,0-7.13.15l-3,.24c-1.27-.52-2.6-1.24-3,.95-5.48-.66-9.7,3.58-14.75,4-4.33.32-6.4,2-6.92,6.06-3.93,1.27-6.56,3.56-6.26,8.1-1.64,4.84-.73,9.8-.73,14.71,0,3,10.79,11.92,13.9,11.61.24,0,.43-.46.65-.7l3.36.11c3.79,1.35,7.11,1.13,9.25-2.86,0-4,1.86-7.83.84-11.88.21-.42.41-.85.61-1.27a2.59,2.59,0,0,0,2.75-2.29c.55-4.72,3.8-7.19,7.42-9.44l11.88,0c.62,1.06,1.67.94,2.65.94,3.06,0,4.61,2.34,5.28,4.49.78,2.51-2.25,2.12-3.68,2.92a10.22,10.22,0,0,0-5.69,8.75c-.12,2.49-.09,5,0,7.48.11,3.47-.13,7.3,3.89,8.92s8.24,1.59,11.62-1.65c3-2.87,7.36-3.75,9.94-7.18a1.18,1.18,0,0,1,2.2.58c.19,3.71,2.07,8.26-1.4,10.83-7.7,5.69-8.78,13.29-8.34,21.95.43,8.28,2.4,9.93,10,7.23,1.14-.4,2.35-2,3.51-.56a3.53,3.53,0,0,1-.16,4.22,16.64,16.64,0,0,0-2.92,6.77c-3.49,1.79-5.54,5.16-8.42,7.62-3.52,3-10.89,2.77-14.1-.49-4.38-4.46-4.28-7,.46-12.26.77-.85,1.51-1.75,2.26-2.62a2,2,0,0,0,1.82-1.39c2.74-7.56-1.5-15.61-9.84-18.63-2.12-2.16-4.7-2.75-7.67-2.69-6.62.12-13.25-.15-19.86.1-4.09.15-7.71,0-9.47-4.44-.14-4.82-3.68-6.46-10.16-4.71l-4-.35a14.8,14.8,0,0,0-6.81-6.86l-.39-3c2.14-3.61-.44-5.61-2.65-7.74-1.36-1.57-2.54-3.39-5-3.43l-1.86-.61c-1.83-.09-3.8-1-5.3.9a5.27,5.27,0,0,0-.79-.07L377,146.28l-.36-9.38c.47-4.71.78-9.37-3.63-12.68l.05.07-.48-1.9c-.64-6.33-6.39-9.73-8.68-15.11a4.59,4.59,0,0,0-1.56-4c-3.55-3.48-6.61-7.66-10.65-10.38-6.49-4.36-13-9.24-21.63-8.6l-1.11,0c-.4-2.45-2.38-1.94-3.92-2-4.82-.07-9.66.31-14.45-.08-18.38-1.51-29.88,9.49-40.3,22.16-1.93,2.34-4.78,4.83-4.39,8.62l.07.15a2,2,0,0,0-1.06,2.08.54.54,0,0,0-.05.56,6.59,6.59,0,0,0-3.54,3.9c-2.75,7.22-4.73,14.58-4,22.43l-.09,16.18c-2.39,6-.52,11.43,2,16.82-.56,4.43,3.06,7.33,4.12,11.17-.61,2.42,1.52,3.34,2.65,4.81a8.53,8.53,0,0,0,4.12,4.11c3,5.91,8.68,9.43,12.92,14.23a27.68,27.68,0,0,0,14.55,9c8.35,2,16,5.22,20.7,13.14.56.95,2,1.58,1.35,2.93s-2,.89-3.11.92c-3.8.1-8-.81-11.16,1.54-3.55,2.62-6.94,4.59-11.56,4.88-3.92.24-5.34,3.83-5.37,7.3,0,2-.24,5.07,3.46,4.77a1.09,1.09,0,0,0,.42.38c2.9,3.34,6.7,6.27,5.18,11.59-2.37,1.61-2.74,4-2.37,6.56a1,1,0,0,0,.1,1.46l-.05,4.52c-1,4.23-.42,8.52-.49,12.78-.11,6.66,0,6.59-6.9,6.73-2.93.06-5.93-.64-8.8.52-5,.91-8.22-1-10.67-5.6-1.58-3-4.33-5.32-6.07-8.33-1.12-1.93-3-2.4-5.15-2.15-3-.64-4.4.41-4.11,3.59.16,1.81.08,3.64.1,5.46-1.07,1.11-.65,2.51-.75,3.8-1,14.48,1.2,28.81,2,43.21.09,1.56.19,3.24,2.15,3.38s4.41.78,6-1.39c3.74-5.16,8.67-9.2,13.09-13.72,6.85-7,6.91-6.93,15.26-3.23a1.46,1.46,0,0,0,.32.69.88.88,0,0,0,.28.83c2.14,5.61,5.54,10.67,7.05,16.58.59,2.28.5,5,2.84,6.64-.13,2.64-.25,5.28-.38,7.92-1.05.36-2,.8-1.16,2.17-1.14,2.35-.17,4.95-.77,7.29-1.23,4.79,1,6.07,5.25,7.34,6.53,2,13.36,1.18,19.82,3.05l43.89.05a35.89,35.89,0,0,0,16.93,0l14.94-.05,48.23.13a1.83,1.83,0,0,0,2.89,0l16,.18c3.86,1.89,6.93-1.13,10.4-1.65,4.77-.7,5.69-1.95,3-5.93-2.36-3.44-2.82-7-2.68-10.84a97.9,97.9,0,0,0,0-10c-.2-3.11.67-5.63,3.19-7.4,3.81-2.69,4.85-6.78,6.11-10.91.81-2.65-.05-4.09-2.14-5.3l-.7-1.44-.88.75-2.28-.14c-.92-1-1.85-1.15-2.8,0l-2.15-.23a1.28,1.28,0,0,0-.75,0l-.07-.08-.27-1.84C474.18,319.61,476.36,317.83,474.58,316.26Z" transform="translate(99.09 119.82)"/><path class="cls-2" d="M295.14,272.52c-.37-2.6,0-4.95,2.37-6.56,4.77-5.3,3-9.21-5.18-11.59a1,1,0,0,1-.41-.37c-2.61-7.23-1.69-8.91,6.06-9.63,3-.28,5.36-1.83,7.63-3.3,3.54-2.29,6.73-4.28,11.34-3,2.21.59,4.88-.41,7.32-.85,1.88-.34,2.17-1.54.75-2.72a21.13,21.13,0,0,1-2.56-3c-4.95-6-9.52-11.92-18.12-13.91-6.42-1.48-12.46-5.14-18.28-8.72s-9.69-9.49-15.17-13.52c.22-3.78-2.87-5.61-4.76-8.15l-1.06-1A18.06,18.06,0,0,0,261,175.28c.27-2.17-.54-4.12-1.26-6.08a6.76,6.76,0,0,0,.11-1.48c-2.37-15.18.28-29.89,4-44.51.9-3.53,4.29-6,4.16-9.92l0,0,1.18-1c4.51-6.43,8.39-13.24,15.07-18s13.81-8.59,22.09-10.13a62.09,62.09,0,0,1,22.58.14l1.11,0,8,4c-.23.23-.65.47-.64.69.07,3.06,1.32,6.73-4.29,5.93-1.54-.21-2.25,1.63-2.08,3.3-2-.67-3.74-2.09-6-1.93l0-2.1c3.38-1.33,1.25-2-.32-2.75A16.68,16.68,0,0,0,315,90.26c-.11-1.6-.79-2.86-2.53-2.84s-2.38,1.3-2.45,2.9c-3.39,2.12-7.08,3.9-8.92,8l5.9-2,.06,1.11c-.13,1.12-.95,1.45-1.82,2-3.23,2.17-6.8,4.17-7.29,8.69-3.87,1.53-4.8,4.17-3.83,8.21s3.76,6.06,6.93,7.94c-.45,1.24-.87,2.49-1.38,3.69-1.3,3.06-4.7,3.71-6.91,3.57-1.77-.11-4.3-3.7-3.52-5.9,2.29-6.46-1-7.24-6-7.1a7.84,7.84,0,0,1-3.43-.45c-3.51-1.65-5.83-.08-7.48,2.74-2.82,4.85-5.49,9.79-6.37,15.46-1,.85-.82,2.06-1,3.18-1,5,1.84,9.73.6,14.75-.39,1.56,1.37,1.94,2.78,2.08,1.12.12,2.84,0,3.25.66,1.75,2.81,3.06,1.78,5.57.74,2.34-1,5.79-2.44,8.42.05,2.76,2.64.83,5.53,0,8.34-1.29,4.6-2.85,9-6.52,12.37-4.18,1.88-3.88,5.09-1.81,8.08A23.76,23.76,0,0,0,288,195.26c0,2.67,1.82,3.07,4,3-.05.86,0,1.66,1,2a2.32,2.32,0,0,0,2,1.26l.89.79,1.15,1h0c2.47,2.56,5.8,3.2,9,4.07,1.4,2.26,3.72,2.38,6,2.57,1.63,1.09,3.6,1.61,5.22,2.5,4.48,2.47,9.32.46,13.79,1.84l2,.07-.07,0c-.72,1.42.54,2,1.22,2.78l1,1,.05.07c-.12,2.72.38,5,3.75,5.16l2,1.08c-.13,1.8.18,3.59-.47,5.42-1.49,4.25.76,4.51,4,3.46l.1-.07c3.29,5.23,8.58,3.89,13.4,4.07.86,1.07,1.93,1,3.06.57l1.87,0c5.25-2.22,10.8-1.63,16.27-1.64,2.48,0,4.95.1,6.85-1.91l9.73.08c.47.47.91.58,1.3-.09,3.61-4.57,2.09-9.17.07-13.77q-4.49-10.23-9-20.44c1.23-1.44,0-1.52-1-1.78l-.21-.22c.4-2.69-.87-5.15-1.08-7.76l4.14-.05c.25.35.5.71.76,1.06.18,2.73.66,5.34,3.14,7,2.15,3.6,3.95,7.47,7.6,9.92l1.43,1-.05.07c1.62,5.55,3.3,11.07,8.09,14.91,2.37,3.41,4.43,6.92,3.79,11.33-1.46,5.1-5.4,7.45-10.35,9a100.62,100.62,0,0,1,15.47-.29c-.63,4.57-5.63,2.19-7.63,4.74-.46.58-2.1.26-1.73,1.72.22.86,1.08,1.14,1.93,1.32,2.71.56,5.43,1.1,8.11,1.8.69.18,1.32,1.34,2,.31.37-.56.43-2,.06-2.25-2.92-2.34-1-4,.72-5.59,1.49-1.39,1.68-3.13,1.83-5,3.27-5,2.69-7.76-2.08-10.09,0-.36-.07-.73-.11-1.1-.79-2.1.95-2.86,2.08-3.95,1.77-.39,3.64-1.38,2.4-3.2-1-1.49-2.5.14-3.48,1.21l-4-.09.07.06-1.53-.9c-1.54-1-4-1.34-2.47-4.15,3.72-2.14,4.26-7.5,1.1-11.05-1.22-2.17,1.14-5.46-2.18-7l.06.08a25.62,25.62,0,0,0-4.06-10c2.49-2.81,6.46-3.68,8.76-6.9,1.23-1.73,3-1.53,3.24,1.09.25,2.87,1.34,4.74,4.55,4.61,1.39,1.26,2.84,2.37,4.89,1.82,2.34,2.44-1.64,5.77,1.15,8.14-.37,6.38,5.52,9.33,7.82,14.25-.21,1.68-2.11,2.54-2,4.39.17,3.79-.89,6.84-4.8,8.44-1.87.77-1.44,2.36.13,2.79,4.23,1.15,3.22,3.26,1.45,5.76-.35.5-.78,1.61-.66,1.69,4.94,3.33-.44,4.43-1.44,6.34-.76,1.46-1.86,2.73-1.95,4.46-.06,1.25.34,2.4,1.66,2.68a1.7,1.7,0,0,0,2.07-1.64c.16-2.79,1.88-3.13,4.08-2.93,3,4.87,7.17,2.48,11.07,1.84l5.95.31c4.36,1.81,8.64-1.14,13-.22a4,4,0,0,0,3.11-.46l6.79-.17a18.11,18.11,0,0,1-3.43,11.06c-1.46,2.05-3.55,4.06-2.69,7.08-1,1.72-2.06,3.4-1.68,5.53-2.63,1.66-3.15,4.18-2.85,7a1.55,1.55,0,0,0-.67,2.29c0,1.26-.05,2.53-.08,3.79-2.12,1.18-1.3,3.23-1.3,4.92,0,12-.71,24.11,1.94,36-3,.09-4.29-.88-3.18-4.17s-.65-5.45-3.82-6.23-2.85,1.72-3.08,3.63c-.14,1.19-1,2.05-2,1.49-2.85-1.61-5.49.62-8.22.14,1.5-3.19,2.55-6.4.22-9.68.43-2.16,3-3.61,2.06-6.22-1.74-4.92-.72-10-1.08-15.05-.05-1-.1-1.93-.16-2.89,2-1.82,3.37-4.27,6.67-4.4,2.06-.08,3.1-2.06,2.5-4-1.26-4.21.48-7.63,2.34-11.1,1.2,1.12,2.34,2.68,4.18,1.14,1.14-1,2.33-2.11,1.82-3.8a24.42,24.42,0,0,0-1.73-3.57c1.42-.64,1.47-2.12,2-3.31s1-2.83-.45-3.53a5,5,0,0,0-3.83-.13c-1.86.88-.15,2.24.1,3.38.29,1.29.64,2.56,1,3.84l-2.68,4.79c-2.93-.61-3.19,2.18-4.55,3.56l-4,.16c-3.47.43-4.29,3.15-5.08,5.9l-1,1a1.7,1.7,0,0,0-1.76,2.2,3.82,3.82,0,0,1-.1.9,3.47,3.47,0,0,0-3.59,2.12c-1.72,5.13-5.27,5.22-9.51,3.94-3.52.11-6.79-1.11-10.13-1.94-4.1-1-5.46,2.21-7.13,4.79-1.52,2.37.34,3.81,1.89,4.91,2.16,1.54,4.27.21,6.29-.77l2.27.08c-.05,1.17.52,1.72,1.68,1.68-.43,2.1,1.8,5-1.82,6.15l-1.08.1c-2.41-1.51-4.93-2.67-7.55-.62-3.11,2.44.9,4.25.71,6.45.89,2.62,1.24,5.23-.13,7.81-3.12-.07-3.21,2-3,4.24a1.24,1.24,0,0,0-.43,1.72c.73,1.12,1.76,2.45,3.13,2a6.18,6.18,0,0,0,4.19-5c.3-1.78,0-4.52,2.16-4.38,5.77.35,11.21-2.61,17-1.36,1.61-.14,3,.06,3.4,2-.2,3.31.92,7.31-4.37,7.92-.38.05.58.82,1,1.2-2,3.15-6.6,4-8.06,9.49,5.31-3.37,9.88-6.35,14.68-1.06.93,1,2.95-1,4.49-1.48,2.45-.81,3.64-.81,5.3,2.08,2.67,4.65-1.37,9.56,1.59,13.82l-5-.9c-1.7-1.39-3.06-1.09-4.11.81-2.73.07-2.68,3.69-5.23,4.05a43.46,43.46,0,0,1-18.63-1.1c-2.89-.84-6.14-2.43-8.74.86l-25.74.31a37.36,37.36,0,0,1-13-2.28c-3.47-1.21-8.29-2.94-11.63,1.45a3.58,3.58,0,0,0-1,.16c-.59-1.32-1.78-1.32-3-1.32l-33.95.05c-1.37,0-2.74,0-2.91,1.87-1.66-.51-3.14-1.21-3.25-3.26-1.29-1.82-1-3.76-.36-5.69.32-1,.7-2-.41-2.61a2.62,2.62,0,0,0-2.77.41c-3.65,2.37-6.17,11.7-3.76,15.79,2.69,4.57,7,4,11.28,2.55l6.17,0c0,2.55,2.69,6.9-3.66,5.17-1.36-.38-2.22,1.16-2.24,2.67s.84,2,2.2,2.06a22.54,22.54,0,0,0,3.94,0c5.14-.84,7.2,3,9.75,6.19-10.78.08-21.54.12-32.29-1.13-8.08-.94-9-2.06-7.42-9.93.84-4.29,3-8.59.68-13.06a55.23,55.23,0,0,0-8.8-24.13l-1.12.05,0-.06c-1.58-7.76-5.12-11-10.26-8.45a39.69,39.69,0,0,0-16.88,15.5h0c-.37.29-.74.58-1.1.88-1.25,1.53-2.44,3.11-3.76,4.57a3.22,3.22,0,0,1-2,1.19c-.95,0-1-1.13-1.05-2-.58-10.65-3.37-21-3.2-31.81.07-4.18-1.1-8.39-1.71-12.59,0-1.82.06-3.65-.1-5.46-.29-3.18,1.13-4.23,4.11-3.59-.41.48-1.25,1.31-1.17,1.4,3.46,4.19,7,8.32,10.54,12.46.46,1.32,1,2.56,2.49,3l-.05,0c.86,5.63.95,5.68,7.09,4a6.55,6.55,0,0,0,4.49,1.81c7.31.45,14.38,1.47,20.34,6.24.9,2.42,3,3.27,5.21,3.87,2.73.72,5.54,1.63,7.17,3.93,2,2.81,4.62,3.26,7.62,3.24l.05.05c1.29,4.44,5.54,4.44,8.84,5.8,1.92.8,4.53,1.88,5-1.44.31-2.38,1.68-5.93-2.91-6.34-.21-.12-.41-.25-.61-.38-.38-6-4.9-1.55-7.14-2.86-.9-1.26-1.81-2.52-2.71-3.79,2.16-.76,3.43-2.59,4.92-4.12a2.4,2.4,0,0,0,.24-3.21,2.12,2.12,0,0,0-2.75-.44c-3.83,2.1-7.8.49-11.69.61a2.07,2.07,0,0,1-2.07-.92c1-.92.73-1.35-.39-2.09-3.15-2.08-6.44-1.27-9.74-.89-1.72-.92-1.79-2.51-2-4.23-.4-3.36.48-6.56.74-9.83,1.73-.32,1.11-2.5,2.47-3.11l3.39,1.08c1.91,1.83,3.77,3.74,6.62,4,1.76,3.52,3.8,2.21,5.87.35,3.67-1.27,7.68-2.16,8-7.17.8-1.81,2.11-4,.08-5.41-5.48-3.75-10.68-8.38-18.06-7.81-2.14,0-4.46.48-6.39-.17-2.91-1-3.89.37-4.69,2.6A1,1,0,0,0,295.14,272.52Zm75.7,53.6c2.77-.49,6.19,2,8.24-1.8a2.64,2.64,0,0,0,.1-.79l1-1.11a1.86,1.86,0,0,0,1.85-2.18c-.37-5.31,1.08-10.81-2.62-15.75-1.43-1.92.28-3.18,2.62-3.23a83.71,83.71,0,0,1,15.73,1c1,.18,2.5.4,3-1.05.4-1.24-.53-1.74-1.62-1.93-2.17-4.09-6.31-4.08-10.07-4.86-1-2.39-3.08-2-5-2.11-7.7-.42-15.41.21-23.16-.44-2.81-.24-7.05-1.84-9.84,1.46l-3-.09a2.27,2.27,0,0,0-3.36-.43c-.91.69-.64,1.67.15,2.44l.24,2.06a2.81,2.81,0,0,0,2.7,3c5.78.82,11.46,2.05,17.43.93,9-1.72,9.35-1.37,11.77,6-1.82,4.24-3.42,8.25-8.81,9.72-5,1.38-9.57,4.5-15.18,2.49a13.37,13.37,0,0,0-8.25.07c-3.18.93-4.23,2.69-.85,5,1.2,1.35,2.87,1.47,4.5,1.85,6,1.36,11.85-.29,17.77-.38l1.79.05Zm44-55.7.33-.26c3.14-1.38,6.41-2.55,9.41-4.19,5.63-3.07,6.32-5.44,2.82-9,0,3.56-2.24,4.92-5.15,5.66l-6.11,1.58c-3.07.48-6.74-1.29-9.16.94-3.65,3.37-7.76,3.22-12.07,3.11-1.07.11-1.81.55-1.79,1.77l-2.2.17a2.23,2.23,0,0,0-2.17-.89c-5.21.32-10.42,1-15.62.88-8.25-.18-16.62,1.34-24.71-1.77a4.66,4.66,0,0,0-5.46,1.44c-.8,1-1.29,2.23-.39,3.17a8.56,8.56,0,0,1,2.55,6.73c-.05,1.07,1,2.42,1.67,2.14,3.59-1.45,8.08,1.1,11.11-2.56a10.1,10.1,0,0,1,2,0c12.34,2.34,24.31.58,36.35-2.49,6.27-1.6,11.76-5.09,18.06-6.4l.28.15ZM373,248.27l-5.09-.11a56.76,56.76,0,0,0-22.82.08,95.22,95.22,0,0,0-21.69,2c-1.56.32-3.1.58-3.17,2.49s1.47,2.36,3,2.78c7.29,2,14.57,3.06,21.81-.21,3.17,1.42,6.27,2.25,9-.93l15.26,0c3.43,2.14,6,.23,7.2-2.5C377.37,249.69,375.05,248.62,373,248.27Zm27.48.23a2.4,2.4,0,0,0-2.1,2.61c.1,1.46,1.2,1.9,2.49,1.67s2.2-.86,2.11-2.3S402.21,248.31,400.43,248.5Zm13.12,78.74c1.17,0,2.35-.17,2.26-1.42-.13-1.83-1.84-2.13-3.26-2.42-.93-.19-2.35-.14-2.1,1.21A3.46,3.46,0,0,0,413.55,327.24Z" transform="translate(99.09 119.82)"/><path class="cls-3" d="M433.54,200.05c-2.79-2.37,1.19-5.7-1.14-8.13.26-.6.54-1.18.77-1.79,1.18-3.06.62-6.61-2.21-7.31-3.06-.76-2.65,3.26-3.47,5.35a5.63,5.63,0,0,0,0,1.92c-3.21.13-4.3-1.74-4.55-4.61-.23-2.62-2-2.82-3.24-1.09-2.3,3.22-6.27,4.09-8.76,6.9L396,181.23l-2-3.9c-.24-.38-.48-.76-.73-1.14l-.13-.18c-2.4-3.55.59-4.48,2.81-5.79l3.93-.25,7.12.36c.05,2.37.07,4.47-3.17,5.06s-1.11,2.63-.69,4.14c1.89,5.36,7.23,6.19,13.06,2l1.85-.21c11.66-.83,23.31-1.7,35,0,.12,2.25,2,3.25,3.36,4.57,3.3,3.09,5.78,6.6,5.57,11.42-1.29.1-2.85.72-3.83.22-4.11-2.11-4.46-.1-4.16,3.27.1,1.08-.7,2.22-.68,3.33.07,3.37-1.82,6.66-.13,10.1,3.52,7.16,16.71,9.43,22.85,3,3.64-.84,5.13-3.84,6.76-6.71,3.29-5.77,8-10.88,8.09-18.07,0-2.16.29-4.35-2.39-5.39-2.89-1.13-3.83.84-4.86,2.78l-1,1c-1.61.37-2.31,1.82-3.4,2.81-1.28,1.17-2.59,2-4.45,1.06s-3.72-2.85-3.24-4c1.94-4.7.76-10.4,5.53-14.37,2.49-2.08,6.12-2.29,7.78-5.48,2.92-5.6-.81-17.88-6.55-20.79-2.07-1.05-5.2-1.31-5,1.56.44,6.36-3.43,3.78-6.24,3.69-1-1.47-2.24-.75-3.54-.42a10.13,10.13,0,0,1-7.7-.72c.56-8.16,1.8-9.93,8.29-11.86a10.31,10.31,0,0,0,1.46.09c1.48-.12,3.55,1.16,4.26-.89.62-1.8-1-2.83-2.53-3.61a5.25,5.25,0,0,1-1.06-1,7.07,7.07,0,0,0-3.48-4c-8.86-5.69-18-7.84-27.56-1.55a14.38,14.38,0,0,0-4.86.62c-7.75,1.86-15.54,3.54-23.31,5.29l-1.66-.12c-.32-1-.25-2.18-1.33-2.82-.3-4.55,2.33-6.84,6.26-8.11a7.07,7.07,0,0,0,2.4-.49,57.72,57.72,0,0,1,19.09-8c.49-.11.82-1,1.23-1.47l1.77.09,17,1.26c.78,2.05,2.72,1.37,4.2,1.76,1.14,1.34,2.68.79,4.09.89,1.75,1.35,3.61,2.36,5.94,2h0c.95,1.64,2,3.06,4.22,2l.75.81a2,2,0,0,0,1,2.14l13,14,1,1h0c10.62,15.73,16.24,32.92,15.12,52.05-1.32,5.93-2.09,12-6.06,17-4,2.17-7.67,4.52-7.14,9.92q-.48,0-1,0c-4.79.65-8.3,4.58-13.12,5.16l0-.09c-.24-.39-.49-.77-.73-1.15-.21-1.21.5-3-1.29-3.3a3.29,3.29,0,0,0-3.27,1.87c-.82,1.61-1.6,3.28-1.28,5.2-.37,2.4-1.84,3.13-4.17,3.32A15.25,15.25,0,0,1,450,227.26c-2.45-4.19-.16-9.06-1.73-13.54-3.66,4.28-4.48,8.35-3.8,18.38a2.59,2.59,0,0,1-2.24,1.32c-2.26-.2-2.83,1.47-3.06,3.09-.26,1.83,1,2.59,2.71,2.79,0,2.51-1.35,4.65-2.05,7-2.2-.2-3.92.14-4.08,2.93a1.7,1.7,0,0,1-2.07,1.64c-1.32-.28-1.72-1.43-1.66-2.68.09-1.73,1.19-3,1.95-4.46,1-1.91,6.38-3,1.44-6.34-.12-.08.31-1.19.66-1.69,1.77-2.5,2.78-4.61-1.45-5.76-1.57-.43-2-2-.13-2.79,3.91-1.6,5-4.65,4.8-8.44-.08-1.85,1.82-2.71,2-4.38C442.16,205.22,440.26,201.76,433.54,200.05Zm11.14-10.66.38,6.79c.14.73,0,1.91,1.18,1.51s.67-1.59.65-2.5c-.58-2.33,2-5.52-1.9-6.95-.37-.56-1-1-1.41-.33C443,188.89,444,189.12,444.68,189.39Z" transform="translate(99.09 119.82)"/><path class="cls-4" d="M569.68,242.42l2.4,0c2,5.21.56,10.63,1,15.94-1.71,5.69.07,11.42.08,17.12,0,4.08-3.4,7.65-1.18,12,1.28,2.51,1.14,5.46,1,8.29-.43,8.53-2,17.07.09,25.59,0,.66-.09,1.32-.13,2a21,21,0,0,1-2.86.81c-7.24,1-10.25-2.55-7.85-9.31.34-.94,1-1.93.44-2.83-4.06-6.38-2.27-13.5-2.71-20.35-.1-1.66.78-3.87-2-4.33,0-.66,0-1.33,0-2,2.68-.26,1.54-1.74,1-3,0-1.14.17-2.37-1.17-3,.75-1.93-.88-2.86-1.72-4.13-3.59-4.5-1.15-10.28-3.1-15.17-1.66,5.15-.87,10.23,0,15.3-.12.31-.22.62-.33.93l-1.89.3L549,275.34c0-4,.1-8-.21-11.92-.1-1.24-.12-3.44-1.87-3.63-1.59-.17-2.18,1.58-2.91,2.92-2.18,4-2.07,8.26-2,12.56-3.09,1-2.25,3-1.16,5,0,.34,0,.68,0,1l-1.88,0-2-1c0-1.87-1.48-2.5-2.85-2.84-1.86-.45-2.24-1.6-1-4.86,2-3.36.89-4-.51-4.16-1-.14-1.71.73-1.18,1.49.94,1.34-.62,3.89,1.51,4.2,3.28.49-.09-2.43.18-1.53a25.81,25.81,0,0,0-13.07.07c-2.86.75-6.47-1.19-8.2-4.55l7.74-5.63,2.49-.18c1,1.19,1.85.73,3,.16C539.81,255.39,554.31,247.94,569.68,242.42Z" transform="translate(99.09 119.82)"/><path class="cls-4" d="M344.58,233.24l-.1.07c-.07-.57-.15-1.14-.22-1.71,1.93-.81,1.76-3.55,3.85-4.22l.93-1.07,1-1c3-1.14,2.89-3.87,2.82-6.22-.16-6-.15-12,4.14-17.51-2.85-.26-5.51,1.86-6.73-2-.63-2-2.59-.94-3.07.79-.43,1.56-.67,3.36.46,4.8,4.4,5.63,4,11.8,2.21,18.17l-1.82-.44c-.56-2.11-1.37-3.93-4.08-3.65-4.55-5.39-8.93-10.7-17-11.08-4.3-.21-8.51-2-12.77-3.1-.23-.67-.45-1.35-.68-2l13.3-.11,1.27.12c1.66.87,1.57,3.71,4.47,3.74-1.32-4.86.68-7.73,5.2-9.37,1.82-.66,1.7-1.28.25-2.85,0-1.11,0-2.22,0-3.33,1.38-1.27.43-1.74-.74-2.14l.53-1c3-4,8.35-5.77,10.25-10.81,3-1.31,1.86-5.1,4.11-6.86l9.71-11.25c4.52-2.23,4.74-6.88,6.12-10.87,2.33-3.67,6-1.4,9-2l2.16,1.08.79.07c1.5-1.87,3.47-1,5.3-.91-.06.58-.13,1.17-.19,1.75-1.21.71-.92,1.93-1,3l-.23.37.21-.39c3.32-.29.5,4,2.07,3.5,4.6-1.46,4.55,3.11,6.82,4.55.26,3.32-2.53,4-4.6,5.29a1.78,1.78,0,0,0-2.45,1.48,4.25,4.25,0,0,1-.77.23l-2,.17c-1.13-1.54-2.17-1.44-3.15.15l-1.48.12c-4.3-1.16-7.32,0-8.3,4.68-3.75,2.92-8.29,4.81-11.22,8.76-3.9,1.16-7.33,3-9.16,6.88-2.33,5-.78,8.71,4.44,8.88,4.79.15,6.72,2.58,8,6.44a24.18,24.18,0,0,1,.46,9.62c-2.72,2.17-1.92,4.7-.75,7.28,0,.65,0,1.3,0,2-2.45,4.34.33,8.66.07,13C356.08,235.4,350.49,231.59,344.58,233.24Z" transform="translate(99.09 119.82)"/><path class="cls-3" d="M377,146.28c-3,.63-6.67-1.64-9,2-1.64-.89-.15-4.1-3-4.08.07-1.77-2.27-2.39-2-4.24-.21-3.29-1.71-6.26-2.34-9.48-.47-2.41-1.84-5.46-5.51-5.3l-.06,0-.88-1c-.9-.86-1.5-2.24-3.14-1.88-3.7,1.1-1.71,4.13-1.91,6.23-.62,6.34-4.18,8.75-10,6.2-1.35-.59-2.54-1.48-4.1-1.4-3.13-3.35-7.47-5.87-7.63-11.24,5-1.62,6.79-6.8,10.69-9.65h5.56c-1.3-2.37-2.28-4.73-4.48-6.29L331,98.19c-.17-1.67.54-3.51,2.08-3.3,5.61.8,4.36-2.87,4.29-5.93,0-.22.41-.46.64-.69,4.63,1.15,8.16,4,11.66,7.1,3,2.67,5,6.59,9.23,7.91a104.8,104.8,0,0,0,12,19c.19,1.25.71,2.15,2.18,2l-.05-.07c.11,4.54.37,9,3.63,12.68Z" transform="translate(99.09 119.82)"/><path class="cls-5" d="M467,155.34c2.81.09,6.68,2.67,6.24-3.69-.19-2.87,2.94-2.61,5-1.56,5.74,2.91,9.47,15.19,6.55,20.79-1.66,3.19-5.29,3.4-7.78,5.48-4.77,4-3.59,9.67-5.53,14.37-.48,1.16,1.52,3.09,3.24,4s3.17.11,4.45-1.06c1.09-1,1.79-2.44,3.4-2.81.12.15.26.28.39.42-.44,3.18,3.22,4.19,3.62,7-.82-2.69,3.4-7-2.62-8-.13-.14-.27-.27-.41-.4,1-1.94,2-3.91,4.86-2.78,2.68,1,2.41,3.23,2.39,5.39-.09,7.19-4.8,12.3-8.09,18.07-1.63,2.87-3.12,5.87-6.76,6.71-.3-2.45,1.15-4,2.89-5.25,1.45-1,2.45-2.1,2-4a16.64,16.64,0,0,1,2.92-6.77,3.53,3.53,0,0,0,.16-4.22c-1.16-1.43-2.37.16-3.51.56-7.64,2.7-9.61,1-10-7.23-.44-8.66.64-16.26,8.34-21.95,3.47-2.57,1.59-7.12,1.4-10.83a1.18,1.18,0,0,0-2.2-.58c-2.58,3.43-6.94,4.31-9.94,7.18-3.38,3.24-7.54,3.29-11.62,1.65s-3.78-5.45-3.89-8.92c-.07-2.49-.1-5,0-7.48a10.22,10.22,0,0,1,5.69-8.75c1.43-.8,4.46-.41,3.68-2.92-.67-2.15-2.22-4.52-5.28-4.49-1,0-2,.12-2.65-.94a14.06,14.06,0,0,0-11.88,0c-3.62,2.25-6.87,4.72-7.42,9.44A2.59,2.59,0,0,1,431.9,144c-2.26-2.1-2-4.84-1.87-7.53,1.1-2.33,3.64-3.22,5.15-5.15,9.57-6.29,18.7-4.14,27.56,1.55a7.07,7.07,0,0,1,3.48,4c-.21,2-4.28,2.48-2.13,5.41-6.49,1.93-7.73,3.7-8.29,11.86-1.16,1.29-.81,2.9-.52,4.25.66,3.14,2.67,5.44,5.93,5.68s3.93-2,4-4.92C465.24,157.91,466.39,156.63,467,155.34Z" transform="translate(99.09 119.82)"/><path class="cls-6" d="M576.85,337.3c-.22,6.32-3.16,8.77-9.32,7-8.44-2.46-15.83-7.35-23.66-11.2A153.72,153.72,0,0,0,521.93,324c-6-1.89-11.23-5.62-17.34-7.37-7.14-2-14-5.86-21.75-2.89,0-.87,0-1.74,0-2.62.42-3.17-4.15-3.7-3.67-6.91,1.67.3,3.37.83,4.3,2.23,1.1,1.65,2.32,2,3.62.75,2.74-2.67,4.6-1.31,6.46,1a6.87,6.87,0,0,0,3.27,2.14c15.32,5.35,30.36,11.41,45.23,17.88l2.91,1H546l0,0c.4.92.78.62,1.17,0h.66c.07,1.35,1,2,2.06,2.55,4.66,2.45,9.36,4.82,13.93,7.42,4.05,2.3,7.4,2,10.15-2Z" transform="translate(99.09 119.82)"/><path class="cls-7" d="M270.89,195.32c5.48,4,9.27,9.9,15.17,13.52s11.86,7.24,18.28,8.72c8.6,2,13.17,7.91,18.12,13.91a21.13,21.13,0,0,0,2.56,3c1.42,1.18,1.13,2.38-.75,2.72-2.44.44-5.11,1.44-7.32.85-4.61-1.23-7.8.76-11.34,3-2.27,1.47-4.58,3-7.63,3.3-7.75.72-8.67,2.4-6.06,9.63-3.71.29-3.5-2.82-3.47-4.78,0-3.47,1.45-7.06,5.37-7.3,4.62-.29,8-2.26,11.56-4.88,3.2-2.35,7.36-1.44,11.16-1.54,1.09,0,2.5.43,3.11-.92s-.79-2-1.35-2.93c-4.66-7.92-12.35-11.14-20.7-13.14a27.68,27.68,0,0,1-14.55-9c-4.24-4.8-9.91-8.32-12.93-14.23C270.38,195.3,270.64,195.31,270.89,195.32Z" transform="translate(99.09 119.82)"/><path class="cls-5" d="M302.94,348.31c2.29,4.47.17,8.77-.67,13.06-1.54,7.87-.66,9,7.42,9.93,10.75,1.25,21.51,1.21,32.29,1.13,19.31.35,38.61.77,57.88,2V376l-14.94.05c-5.58-1.69-11.31-.35-17-.77-12.08-.37-24.18.48-36.28-.54-2.23-.18-5.68-2.39-7.59,1.3-6.46-1.87-13.29-1.09-19.82-3.05-4.23-1.27-6.48-2.55-5.25-7.34.6-2.34-.37-4.94.77-7.29a1.88,1.88,0,0,0,1.16-2.17c.13-2.64.25-5.28.38-7.92Z" transform="translate(99.09 119.82)"/><path class="cls-8" d="M479.12,304.23c-.48,3.21,4.09,3.74,3.67,6.91-5.85.26-4.13-6.69-8.66-8.77,1.15,3.67,2.14,6.81,3.12,9.95-.09.53-.18,1.05-.26,1.58l-1.82.78L472.41,313c-1-4.11.61-8.42-1-12.48.78-1.82,1.16-3.6-.38-5.25l-.51-4.89c.34-1.75,1.1-3.53.93-5.22-.46-4.68,3.7-9.17.51-13.9-.38-2.13.72-3.81,1.68-5.53,5.21-4.27,8.41-4.62,13.46-1.47,0,.69-.07,1.38-.1,2.07-1.6.4-3,1-2.76,3l-.18.21-.76.78-2.13,2.17c-2.62,1.06-3.14,3.27-3.13,5.76l0,.05a1.69,1.69,0,0,0-.94,2A28.42,28.42,0,0,0,479.12,304.23Z" transform="translate(99.09 119.82)"/><path class="cls-9" d="M480.89,323.45l2.27.14,1.59.69c2.09,1.21,2.95,2.65,2.14,5.3-1.26,4.13-2.3,8.22-6.11,10.91-2.52,1.77-3.39,4.29-3.19,7.4a97.9,97.9,0,0,1,0,10c-.14,3.89.32,7.4,2.68,10.84,2.73,4,1.81,5.23-3,5.93-3.47.52-6.54,3.54-10.4,1.65.8-3.72,4.47-.87,6.11-2.68,1.57-1.22,3-2.46,1.13-4.54l-.32-23.79q.72-3,1.45-5.94c2-.51,2.54-2.35,3.43-3.8,1-1.64-2.07-3.62.28-5.28,1.09.71,2.28,1.51,3.46.42a2.4,2.4,0,0,0,.6-2.12c-.81-1.77-2.43-1.79-4.1-1.38-.52-1.71-3.13-1.84-3-4l2.15.23A1.63,1.63,0,0,0,480.89,323.45Z" transform="translate(99.09 119.82)"/><path class="cls-6" d="M253.1,291.5c.61,4.2,1.78,8.41,1.71,12.59-.17,10.76,2.62,21.16,3.2,31.81,0,.83.1,1.92,1.05,2a3.22,3.22,0,0,0,2-1.19c1.32-1.46,2.51-3,3.76-4.57l.78.51.32-1.39h0c2.18.17,3.2-1.56,4.44-2.82a59.63,59.63,0,0,1,8.93-7.87c4.32-3,10-1.48,11.54,3-8.35-3.7-8.41-3.76-15.26,3.23-4.42,4.52-9.35,8.56-13.09,13.72-1.57,2.17-3.9,1.54-6,1.39s-2.06-1.82-2.15-3.38c-.81-14.4-3-28.73-2-43.21C252.45,294,252,292.61,253.1,291.5Z" transform="translate(99.09 119.82)"/><path class="cls-7" d="M475.94,323.18c-.1,2.17,2.51,2.3,3,4,0,1,0,2.06,0,3.08-2.35,1.66.72,3.64-.28,5.28-.89,1.45-1.46,3.29-3.43,3.8q-3.12-5.58-6.22-11.16l-.07-2.92c-2.65-11.89-1.91-24-1.94-36,0-1.69-.82-3.74,1.3-4.92,1.49,1.72,0,4.53,2.16,6l.51,4.89c-1.49,1.87-1.59,3.64.38,5.25,1.6,4.06,0,8.37,1,12.48-.49,1.6-.67,3.05,1.65,3.2.56,1.63-3,3.92.79,5.05.09.61.18,1.23.26,1.84-.14.18-.29.35-.44.52l.52-.44A1.28,1.28,0,0,1,475.94,323.18Zm-2.53,2.66c-.81-.29-1.13.14-1.18.6s.1,1.07.38,1.23c.7.4,1.22,0,1.22-.78A2.57,2.57,0,0,0,473.41,325.84Zm2.93,5c-.06-.1-.1-.26-.18-.3s-.26,0-.39,0l.26.47Z" transform="translate(99.09 119.82)"/><path class="cls-10" d="M405.35,137.15l1.66.12c4.33,5.57,11,5.42,17,7l-.06,2.74L422,147c-4.59-.56-7,2.17-6.43,7.42.64-1.64,1.66-2.49,3.37-2.12,1.82,1.58,3.28,1.66,4.08-1h.14c1.69,1.61,3.28,3.27,2.73,5.91l-4.68,2.78-3.36-.1a58.49,58.49,0,0,1-7.08-7.17C406.74,148.28,404.38,143.32,405.35,137.15Z" transform="translate(99.09 119.82)"/><path class="cls-7" d="M573.09,321.3c-2-8.52-.52-17.06-.09-25.59.14-2.83.28-5.78-1-8.29-2.22-4.32,1.2-7.89,1.18-12,0-5.7-1.79-11.43-.08-17.12l1.82,0c.91.93.84,2.11.84,3.27q0,28.65,0,57.3a19,19,0,0,1-.36,2.46Z" transform="translate(99.09 119.82)"/><path class="cls-6" d="M569.68,242.42c-15.37,5.52-29.87,13-44.53,20.07-1.17.57-2.06,1-3-.16a27.31,27.31,0,0,1,11.29-8.57c8.79-3.73,17.36-8,26.17-11.69A13.16,13.16,0,0,1,569.68,242.42Z" transform="translate(99.09 119.82)"/><path class="cls-10" d="M328.93,84.33a62.09,62.09,0,0,0-22.58-.14c-8.28,1.54-15.31,5.26-22.09,10.13s-10.56,11.59-15.07,18c-1.6-1.13-1,.36-1.18,1l0,0-2.17-.23c-.39-3.79,2.46-6.28,4.39-8.62,10.42-12.67,21.92-23.67,40.3-22.16,4.79.39,9.63,0,14.45.08C326.55,82.39,328.53,81.88,328.93,84.33Z" transform="translate(99.09 119.82)"/><path class="cls-10" d="M450,227.26a15.25,15.25,0,0,0,13.06,5.05c2.33-.19,3.8-.92,4.16-3.32,2.77,1.62,5.43,2,7.8-.71,4.51-1.41,10.29-.66,11.93-7,.32,0,.64,0,1,0,2.85,0,3.75-3,6-3.93,4.69-3.08,6.56-8,8.24-13l.81-.14c.4,7.2-8.31,19.12-15.94,22.07-6.13,2.37-12.15,5-18.26,7.42a19.93,19.93,0,0,1-14.6.49c-3.17-1.2-5.65-.92-8.19,1l.87-3.91C448.34,230.31,450.59,229.89,450,227.26Z" transform="translate(99.09 119.82)"/><path class="cls-11" d="M276,303.31c-6.14,1.67-6.23,1.62-7.09-4,3.49,1.41,6.9,1.81,10.08-.77,2.87-1.16,5.87-.46,8.8-.52,6.87-.14,6.79-.07,6.9-6.73.07-4.26-.53-8.55.49-12.78l3.39,9.82c-.26,3.27-1.14,6.47-.74,9.83.21,1.72.28,3.31,2,4.23-.11,1.54-.7,1.86-2.25,1.31a75.13,75.13,0,0,0-9.87-3C283.52,299.85,279.24,299.46,276,303.31Z" transform="translate(99.09 119.82)"/><path class="cls-6" d="M480.87,208c.47,1.89-.53,3-2,4-1.74,1.24-3.19,2.8-2.89,5.25-6.14,6.44-19.33,4.17-22.85-3-1.69-3.44.2-6.73.13-10.1,0-1.11.78-2.25.68-3.33-.3-3.37.05-5.38,4.16-3.27,1,.5,2.54-.12,3.83-.22-.29,1-.59,1.94-.88,2.92-.75.87-1.49,1.77-2.26,2.62-4.74,5.23-4.84,7.8-.46,12.26,3.21,3.26,10.58,3.5,14.1.49C475.33,213.2,477.38,209.83,480.87,208Z" transform="translate(99.09 119.82)"/><path class="cls-9" d="M487.11,264.25c-5.05-3.15-8.25-2.8-13.46,1.47-.86-3,1.23-5,2.69-7.08a18.11,18.11,0,0,0,3.43-11.06l5.42-1.27a5,5,0,0,1,1.54,3.15c-2.55.93-3.42,3.07-4.27,5.79h4.7l1.77,1c0,1.36,0,2.71,0,4.07Z" transform="translate(99.09 119.82)"/><path class="cls-5" d="M501.15,194.33c1.12-19.13-4.5-36.32-15.12-52.05,4.37-.38,4.74,3.87,7,6,.07.29.13.59.17.88.1,2.47.92,4.46,3.49,5.3.12.3.23.6.34.9.81,3.21,2.46,6,4,8.94.07,1.62.13,3.24.19,4.86a7.73,7.73,0,0,0,1.76,5.13q-.15,10-.29,20.08Z" transform="translate(99.09 119.82)"/><path class="cls-6" d="M453,181.38c-11.66-1.74-23.31-.87-35,0,.43-1,1.52-2,0-2.85-2.07-1.12-1.89-3.18-2.29-5l.32-.23c1.76,4.47,5.38,4.59,9.47,4.44,6.61-.25,13.24,0,19.86-.1,3-.06,5.55.53,7.67,2.69Z" transform="translate(99.09 119.82)"/><path class="cls-6" d="M519.64,262.51l-7.74,5.63c-5.62,2.75-11.15,5.73-16.89,8.19-4.7,2-5.55,1.25-6.11-4,1.05-.12,2,3.83,3.14.11l2,0c1.35,1.3,1.74.3,2.07-.87,6-2.9,11.74-6.46,18.26-8.31A15.18,15.18,0,0,1,519.64,262.51Z" transform="translate(99.09 119.82)"/><path class="cls-5" d="M265.87,113.06l2.17.23c.13,3.93-3.26,6.39-4.16,9.92-3.73,14.62-6.38,29.33-4,44.51a6.76,6.76,0,0,1-.11,1.48c-2.38-.43-1.61-2.35-1.79-3.82-.3-2.33.74-4.81-.73-7q0-8.09.08-16.18c2-8.91,3.23-18.06,7.51-26.33a.54.54,0,0,1,.05-.56,1.87,1.87,0,0,0,1.06-2.08Z" transform="translate(99.09 119.82)"/><path class="cls-10" d="M358.9,103.28c-4.2-1.32-6.19-5.24-9.23-7.91-3.5-3.07-7-6-11.66-7.1l-8-4c8.59-.64,15.14,4.24,21.63,8.6,4,2.72,7.1,6.9,10.65,10.38a4.63,4.63,0,0,1,1.57,4Z" transform="translate(99.09 119.82)"/><path class="cls-10" d="M493,148.26c-2.22-2.11-2.59-6.36-7-6h0c-.29-.38.55-1.8-1-1l-13-14a2.37,2.37,0,0,0-1-2.14l-.75-.81a5.58,5.58,0,0,0-4.22-2h0l-1-2c3.76-1.26,5.78,1.85,7.84,3.72,6,5.45,10.89,12,17.25,17.12A7.78,7.78,0,0,1,493,148.26Z" transform="translate(99.09 119.82)"/><path class="cls-6" d="M405.35,137.15c-1,6.17,1.39,11.13,5.41,15.63a58.49,58.49,0,0,0,7.08,7.17c-.22.23-.41.66-.65.69-3.11.31-13.89-8.58-13.9-11.61,0-4.91-.91-9.87.73-14.7C405.1,135,405,136.15,405.35,137.15Z" transform="translate(99.09 119.82)"/><path class="cls-10" d="M298.58,288.32l-3.39-9.82c0-1.51,0-3,0-4.52l.63-1.27c.8-2.23,1.78-3.58,4.69-2.6,1.93.65,4.25.15,6.39.17a5.33,5.33,0,0,1-.78,3.71c-7.56,2.92-8.45,4.87-5.11,11.22C299.69,285.82,300.31,288,298.58,288.32Z" transform="translate(99.09 119.82)"/><path class="cls-6" d="M279,298.53c-3.18,2.58-6.59,2.18-10.08.77l.05,0c.11-1.78-.24-3.17-2.49-3-3.53-4.14-7.08-8.27-10.54-12.46-.08-.09.76-.92,1.17-1.4,2.12-.25,4,.22,5.15,2.15,1.74,3,4.49,5.37,6.07,8.33C270.78,297.48,274,299.44,279,298.53Z" transform="translate(99.09 119.82)"/><path class="cls-10" d="M399.85,376c0-.52,0-1,0-1.56l48.27,0c0,.55,0,1.11-.05,1.66Z" transform="translate(99.09 119.82)"/><path class="cls-12" d="M385.06,166.31a4.25,4.25,0,0,0,.77-.23,1.92,1.92,0,0,0,2.45-1.48c2.07-1.3,4.86-2,4.6-5.29l1.1-1.11.34.14.38,0,.39,3c.49,4.06,2.9,6.2,6.81,6.87l4,.34c-1.79,1.36-4.24,0-6,1.45l-3.92.25c-2.93-.31-5.85-.73-8.79-.89C385,169.21,384.89,167.93,385.06,166.31Z" transform="translate(99.09 119.82)"/><path class="cls-5" d="M290.84,323.55c-1.53-4.5-7.22-6-11.54-3a59.63,59.63,0,0,0-8.93,7.87c-1.24,1.26-2.26,3-4.44,2.82a39.69,39.69,0,0,1,16.88-15.5c5.14-2.54,8.68.69,10.26,8.45l-1.09.09-.82,0A1.46,1.46,0,0,1,290.84,323.55Z" transform="translate(99.09 119.82)"/><path class="cls-7" d="M292,324.26l1.09-.09,0,.06c.42,1,.77.54,1.12-.05a55.23,55.23,0,0,1,8.8,24.13l-1.62,0c-2.34-1.6-2.25-4.36-2.84-6.64-1.51-5.91-4.91-11-7.05-16.58Z" transform="translate(99.09 119.82)"/><path class="cls-11" d="M446.84,231.33l-.87,3.91-1.05,3a2,2,0,0,0-.45,2.94c.18,1.36.37,2.72.55,4.08a.88.88,0,0,0,1,.93l5,.18a7.55,7.55,0,0,0,0,.83c0,.29-.07.59-.09.88-3.9.64-8.09,3-11.07-1.84.7-2.33,2-4.47,2.05-7,1.23-1.89,1.75-3.83.35-5.88a2.59,2.59,0,0,0,2.24-1.32Z" transform="translate(99.09 119.82)"/><path class="cls-11" d="M501.15,194.33l1.49,0,.18,8a2.06,2.06,0,0,0-.67,2.07c-1.68,5-3.55,9.88-8.24,13,.4-2,.79-4,1.18-6C499.06,206.37,499.83,200.26,501.15,194.33Z" transform="translate(99.09 119.82)"/><path class="cls-5" d="M433,116.28c-.41.51-.74,1.36-1.23,1.47a57.72,57.72,0,0,0-19.09,8,7.07,7.07,0,0,1-2.4.49c.52-4.07,2.59-5.74,6.92-6.06,5.05-.37,9.27-4.61,14.75-4Z" transform="translate(99.09 119.82)"/><path class="cls-7" d="M394,158.2l-1.1,1.11c-2.27-1.44-2.22-6-6.82-4.55-1.57.5,1.25-3.79-2.07-3.5l0,0c.11-1.08-.18-2.3,1-3a2.14,2.14,0,0,0,2-1.13c2.42,0,3.6,1.86,5,3.43C391.63,153.38,394.34,155.4,394,158.2Z" transform="translate(99.09 119.82)"/><path class="cls-13" d="M453,181.38l0-1.11c8.34,3,12.58,11.07,9.84,18.63a2,2,0,0,1-1.82,1.39c.29-1,.59-1.95.88-2.92.21-4.82-2.27-8.33-5.57-11.42C455,184.63,453.14,183.63,453,181.38Z" transform="translate(99.09 119.82)"/><path class="cls-7" d="M358.9,103.28l5,4c2.28,5.38,8,8.78,8.67,15.11l-1.7-.1A104.8,104.8,0,0,1,358.9,103.28Z" transform="translate(99.09 119.82)"/><path class="cls-9" d="M423.93,147l.06-2.74a5.64,5.64,0,0,0,2.21-4.55c.11-2.08,1.21-3.74,3.83-3.21-.09,2.69-.39,5.43,1.87,7.53l-.6,1.27-1.25.74A6.55,6.55,0,0,1,423.93,147Z" transform="translate(99.09 119.82)"/><path class="cls-5" d="M430.05,146.05l1.25-.74c1,4.05-.82,7.9-.84,11.88l-4.58.08c.55-2.64-1-4.3-2.73-5.91a1.67,1.67,0,0,1-.16-.58C429.38,152,429.67,151.81,430.05,146.05Z" transform="translate(99.09 119.82)"/><path class="cls-11" d="M324.09,376.06c1.91-3.69,5.36-1.48,7.59-1.3,12.1,1,24.2.17,36.28.54,0,.27,0,.54,0,.81Z" transform="translate(99.09 119.82)"/><path class="cls-6" d="M264.83,115.85c-4.28,8.27-5.48,17.42-7.51,26.33-.76-7.85,1.22-15.21,4-22.43A6.59,6.59,0,0,1,264.83,115.85Z" transform="translate(99.09 119.82)"/><path class="cls-6" d="M399.88,170c1.77-1.48,4.22-.09,6-1.45,6.48-1.74,10-.1,10.16,4.72l-.32.23a3.13,3.13,0,0,0-2.89-1.19L407,170.33Z" transform="translate(99.09 119.82)"/><path class="cls-6" d="M473,373.62c-1.64,1.81-5.31-1-6.11,2.68l-16-.18c0-.26,0-.52,0-.79,1.38-.22,2.94.36,4.06-.95l17-1.17Z" transform="translate(99.09 119.82)"/><path class="cls-6" d="M257.24,158.36c1.47,2.21.43,4.69.73,7,.18,1.47-.59,3.39,1.79,3.82.72,2,1.53,3.91,1.26,6.08l-1.78-.1C256.72,169.79,254.85,164.33,257.24,158.36Z" transform="translate(99.09 119.82)"/><path class="cls-10" d="M259.24,175.18l1.78.1a18.06,18.06,0,0,1,4.05,10.92l-1.7.15C262.3,182.51,258.68,179.61,259.24,175.18Z" transform="translate(99.09 119.82)"/><path class="cls-7" d="M292.33,254.37c8.21,2.38,9.95,6.29,5.18,11.59C299,260.64,295.23,257.71,292.33,254.37Z" transform="translate(99.09 119.82)"/><path class="cls-5" d="M376.62,136.9c-3.26-3.64-3.52-8.14-3.63-12.68C377.4,127.53,377.09,132.19,376.62,136.9Z" transform="translate(99.09 119.82)"/><path class="cls-11" d="M477.25,312.32c-1-3.14-2-6.28-3.12-9.95,4.53,2.08,2.81,9,8.66,8.77,0,.88,0,1.75,0,2.62l-2.9.16A2.84,2.84,0,0,0,477.25,312.32Z" transform="translate(99.09 119.82)"/><path class="cls-9" d="M368,376.11c0-.27,0-.54,0-.81,5.64.42,11.37-.92,17,.77A35.89,35.89,0,0,1,368,376.11Z" transform="translate(99.09 119.82)"/><path class="cls-10" d="M574.92,258.31l-1.82,0c-.46-5.31,1-10.73-1-15.94,2.56-.32,3,1.21,2.94,3.27C575,249.88,575,254.09,574.92,258.31Z" transform="translate(99.09 119.82)"/><path class="cls-11" d="M451.75,117.63l-17-1.26c.07-.37.14-.74.2-1.11l3-.24,7.13-.15h7.09a7.25,7.25,0,0,1,.86.48c.05.64.09,1.28.14,1.92Z" transform="translate(99.09 119.82)"/><path class="cls-11" d="M469.87,248.21c-4.34-.92-8.62,2-13,.22l-.84-1.16c0-.29,0-.58,0-.86h9C466.23,248.08,468.71,246.35,469.87,248.21Z" transform="translate(99.09 119.82)"/><path class="cls-10" d="M469.87,248.21c-1.16-1.86-3.64-.13-4.86-1.8,3.93-1.07,7.83-2.3,12-2.1,0,.29-.06.58-.1.87-1.65.34-3.51.34-3.92,2.57A4,4,0,0,1,469.87,248.21Z" transform="translate(99.09 119.82)"/><path class="cls-11" d="M473,247.75c.41-2.23,2.27-2.23,3.92-2.57,1.12,0,2.26.22,3.13-.76l3.87,0,1.29,1.87-5.42,1.27Z" transform="translate(99.09 119.82)"/><path class="cls-10" d="M485.19,246.31l-1.29-1.87c2-.27,3.66.25,3.93,2.53.37,3.09,2.23,6,1.1,9.28l-1.77-1q-.21-2.9-.43-5.79A5,5,0,0,0,485.19,246.31Z" transform="translate(99.09 119.82)"/><path class="cls-6" d="M425.88,157.27l4.58-.08c-2.15,4-5.47,4.21-9.26,2.86Z" transform="translate(99.09 119.82)"/><path class="cls-6" d="M573.09,321.3l2.28,0c3,4.34,1.23,9.21,1.52,13.86-1.49-1.51-.69-3.42-.88-5.15-.17-1.55.41-3.45-2-3.76-.1-1.09,0-2.25-1-3C573,322.62,573.05,322,573.09,321.3Z" transform="translate(99.09 119.82)"/><path class="cls-7" d="M574,326.29c2.44.31,1.86,2.21,2,3.76.19,1.73-.61,3.64.88,5.15,0,.7,0,1.4,0,2.1l-2.9-.05Z" transform="translate(99.09 119.82)"/><path class="cls-10" d="M453.15,117.27c0-.64-.09-1.28-.14-1.92,3.59.54,6.84,1.73,9.1,4.79l-2.07.14c-1.41-.1-3,.45-4.09-.89C456.24,117.07,454.18,117.85,453.15,117.27Z" transform="translate(99.09 119.82)"/><path class="cls-6" d="M401.9,168.18c-3.91-.67-6.32-2.81-6.81-6.87A14.87,14.87,0,0,1,401.9,168.18Z" transform="translate(99.09 119.82)"/><path class="cls-10" d="M270.89,195.32c-.25,0-.51,0-.77,0a8.55,8.55,0,0,1-4.11-4.11l.12-4C268,189.71,271.11,191.54,270.89,195.32Z" transform="translate(99.09 119.82)"/><path class="cls-10" d="M487.11,264.25l1.78-3.93c1.13,3.24-.38,6.74.95,10l-1.77-.95a1.94,1.94,0,0,0-2-1c.31-.67.61-1.35.92-2Z" transform="translate(99.09 119.82)"/><path class="cls-6" d="M394,158.2c.36-2.8-2.35-4.82-1.94-7.63,2.22,2.13,4.8,4.13,2.66,7.74l-.38,0Z" transform="translate(99.09 119.82)"/><path class="cls-10" d="M501,164.28c-1.53-2.89-3.18-5.73-4-8.94A8.23,8.23,0,0,1,501,164.28Z" transform="translate(99.09 119.82)"/><path class="cls-11" d="M442.07,132.31a14.06,14.06,0,0,1,11.88,0Z" transform="translate(99.09 119.82)"/><path class="cls-10" d="M496.65,154.44c-2.57-.84-3.39-2.83-3.49-5.3A4.93,4.93,0,0,1,496.65,154.44Z" transform="translate(99.09 119.82)"/><path class="cls-7" d="M266.13,187.17l-.12,4c-1.13-1.47-3.26-2.39-2.65-4.81l1.71-.15Z" transform="translate(99.09 119.82)"/><path class="cls-9" d="M488.07,269.33l1.77.95,2.2,2.15c-1.18,3.72-2.09-.23-3.14-.11C487.85,271.54,488.05,270.41,488.07,269.33Z" transform="translate(99.09 119.82)"/><path class="cls-10" d="M456,246.41c0,.28,0,.57,0,.86l-5,0a7.55,7.55,0,0,1,0-.83A3.47,3.47,0,0,1,456,246.41Z" transform="translate(99.09 119.82)"/><path class="cls-6" d="M474.85,321.24c-3.81-1.13-.23-3.42-.79-5.05h.26l.26.07C476.36,317.83,474.18,319.61,474.85,321.24Z" transform="translate(99.09 119.82)"/><path class="cls-10" d="M502.93,174.27a7.73,7.73,0,0,1-1.76-5.13C503.16,170.37,504.09,172,502.93,174.27Z" transform="translate(99.09 119.82)"/><path class="cls-9" d="M451,375.33c0,.27,0,.53,0,.79a1.82,1.82,0,0,1-2.89,0c0-.55,0-1.11.05-1.66.91,0,1.82,0,2.74,0A8.78,8.78,0,0,1,451,375.33Z" transform="translate(99.09 119.82)"/><path class="cls-11" d="M474.58,316.26l-.26-.07h-.26c-2.32-.15-2.14-1.6-1.65-3.2l2.76,1.69C475,315.21,474.77,315.73,474.58,316.26Z" transform="translate(99.09 119.82)"/><path class="cls-6" d="M477.25,312.32a2.84,2.84,0,0,1,2.69,1.6c-1,1.3-2,1.21-2.95,0C477.07,313.37,477.16,312.85,477.25,312.32Z" transform="translate(99.09 119.82)"/><path class="cls-5" d="M460,120.28l2.07-.14,2.89.19c.32.66.65,1.31,1,2C463.65,122.64,461.79,121.63,460,120.28Z" transform="translate(99.09 119.82)"/><path class="cls-10" d="M445.06,114.87l-7.13.15A8.81,8.81,0,0,1,445.06,114.87Z" transform="translate(99.09 119.82)"/><path class="cls-6" d="M480.89,323.45a1.63,1.63,0,0,1-2.8,0C479,322.3,480,322.42,480.89,323.45Z" transform="translate(99.09 119.82)"/><path class="cls-10" d="M444.47,241.22a2,2,0,0,1,.45-2.94C446.13,239.47,446.24,240.49,444.47,241.22Z" transform="translate(99.09 119.82)"/><path class="cls-10" d="M435,115.26c-.06.37-.13.74-.2,1.11l-1.77-.09-1.05-.07C432.37,114,433.7,114.74,435,115.26Z" transform="translate(99.09 119.82)"/><path class="cls-5" d="M370.86,122.29l1.7.1.48,1.9C371.57,124.44,371.05,123.54,370.86,122.29Z" transform="translate(99.09 119.82)"/><path class="cls-10" d="M452.15,114.87h-2.31C450.6,113.3,451.37,113.21,452.15,114.87Z" transform="translate(99.09 119.82)"/><path class="cls-6" d="M484.75,324.28l-1.59-.69.89-.75Z" transform="translate(99.09 119.82)"/><path class="cls-6" d="M387.09,147.14a2.14,2.14,0,0,1-2,1.13c.06-.58.13-1.17.19-1.75Z" transform="translate(99.09 119.82)"/><path class="cls-10" d="M496.1,271.54c-.33,1.17-.72,2.17-2.07.87A1.87,1.87,0,0,1,496.1,271.54Z" transform="translate(99.09 119.82)"/><path class="cls-7" d="M301,356.21a1.88,1.88,0,0,1-1.16,2.17C299,357,299.9,356.57,301,356.21Z" transform="translate(99.09 119.82)"/><path class="cls-11" d="M295.86,272.71l-.63,1.27a.75.75,0,1,1,.63-1.27Z" transform="translate(99.09 119.82)"/><path class="cls-9" d="M480,244.42c-.87,1-2,.79-3.13.76,0-.29.07-.58.1-.87Z" transform="translate(99.09 119.82)"/><path class="cls-5" d="M502.15,204.38a2.06,2.06,0,0,1,.67-2.07c.05.65.09,1.29.14,1.94C502.69,204.28,502.42,204.33,502.15,204.38Z" transform="translate(99.09 119.82)"/><path class="cls-6" d="M265.94,113.21a1.87,1.87,0,0,1-1.06,2.08A2,2,0,0,1,265.94,113.21Z" transform="translate(99.09 119.82)"/><path class="cls-6" d="M292,324.26l-.54.81a.88.88,0,0,1-.28-.83Z" transform="translate(99.09 119.82)"/><path class="cls-6" d="M379.93,147.43l-.79-.07A5.27,5.27,0,0,1,379.93,147.43Z" transform="translate(99.09 119.82)"/><path class="cls-10" d="M446,246.23a.88.88,0,0,1-1-.93Z" transform="translate(99.09 119.82)"/><path class="cls-14" d="M450.87,374.45c-.92,0-1.83,0-2.74,0l-48.27,0c-19.27-1.26-38.57-1.68-57.88-2-2.55-3.16-4.61-7-9.75-6.19a22.54,22.54,0,0,1-3.94,0c-1.36,0-2.21-.62-2.2-2.06s.88-3.05,2.24-2.67c6.35,1.73,3.64-2.62,3.66-5.17l3-.07h10a442.3,442.3,0,0,1,46.75,1.93c15.92,1.53,31.9,1,47.87,1,1.14,0,2.36.2,3.23-.87l3.58-.2a25.39,25.39,0,0,0,9.12-2A6.62,6.62,0,0,0,458,345.23c-3-4.26,1.08-9.17-1.59-13.82-1.66-2.89-2.85-2.89-5.3-2.08-1.54.51-3.56,2.51-4.49,1.48-4.8-5.29-9.37-2.31-14.68,1.06,1.46-5.47,6-6.34,8.06-9.49,3-.36,6-.61,8.7-2.25,2.73.48,5.37-1.75,8.22-.14,1,.56,1.86-.3,2-1.49.23-1.91-.07-4.41,3.08-3.63s4.94,2.9,3.82,6.23.19,4.26,3.18,4.17l.06,2.92c-.61,1.19-1.4,2.44-1,3.77.82,2.89.75,4.94-2.81,6-1.62.47-1.61,3.36-.14,3.49,3.5.31,5.32,3.83,8.74,3.86q.15,11.9.31,23.79c-1,1.23-2.6,2.15-2.17,4.13l-17,1.17Zm3.39-49.28-1.08-1.43c-.33.24-.84.43-.93.75-.19.61-.06,1.31.81,1.27C453.45,325.74,453.83,325.39,454.26,325.17Z" transform="translate(99.09 119.82)"/><path class="cls-15" d="M388.16,200.09l9,20.43c-.06,2.5-.31,5-.14,7.48.22,3.37-1.3,4.33-4.44,4.22-3.81-.12-7.64.17-11.45.28l-2.23.06-2.71.06c-2.1-.08-4.19-.14-6.29-.23s-4.37.65-5.16-2.24c-.4-4.69,3.61-9,1.73-13.62-1.76-4.36-1.67-8.76-1.68-13.23-.21-7-2-8.84-8.59-9.05-1.7-.06-3.94.79-4.76-1.5s0-4.26,1.64-6.28c1.81-2.23,4.56-1.68,6.51-3.11l3.3,1.16a2.29,2.29,0,0,0,.11,1l.69.79c1.41,3,4.06,4.87,6.34,7.09l.85.9c1.43,3.06,3.95,5.62,4.13,9.26.11,2.12.32,4.26,2.2,5.72,0,2,.06,4-.07,5.93-.2,3,1.41,3.31,3.74,2.74,2.66.66,4.21,0,4.07-3.12-.12-2.83-.08-5.66-.11-8.49.45-2.1-.74-3.84-1.3-5.71-.38-1.28-1.1-2.76,0-3.69,1.39-1.13,2.16,1,3.42,1.18l.21.22C387.13,199.11,387.28,199.8,388.16,200.09Z" transform="translate(99.09 119.82)"/><path class="cls-16" d="M446.45,358.16l-3.58.2c-21.27,1.42-42.37-2.95-63.62-2a16.23,16.23,0,0,1-11.11-3.16q-1.12-2.4-2.26-4.78c3.34-4.4,8.16-2.67,11.63-1.46a37.36,37.36,0,0,0,13,2.28l25.74-.3c1.82.09,3.81-.26,5.44.35,6.93,2.59,14.11,1.57,21.2,1.83a9.87,9.87,0,0,0,8.4-3.45l2.64-.25c2.75,3.31,2.42,5.43-2.1,6.67C449.71,354.69,447.41,355.72,446.45,358.16Z" transform="translate(99.09 119.82)"/><path class="cls-15" d="M425,300.28c3.62-1.16,1.39-4,1.82-6.15a1.5,1.5,0,0,0-1.68-1.68l-2.27-.08c-1.78-.52-5,1.28-4.89-2.35.07-2.88,2.69-3.56,5.07-3.71,3-.2,6-.09,9-.11,4.39,4.14,9.4,5.15,15,3,.29.08.58.15.87.2a34.83,34.83,0,0,1-.16,19.31c-2.49-.39-3.6-1.7-3.43-4.36s-1.14-1.38-2.14-.6c-2.65-1-3.87,1-5.39,2.48-2.07,2-4.12,3.85-6-.21a2.35,2.35,0,0,0-2.41-1.42c-1.64.22-1.37,1.62-1.39,2.72,0,2.1-1.18,2.76-3.14,2.94-4.92.45-5.95-1.6-3.86-7.94l1-.14C422.66,302.19,424.58,302.83,425,300.28Z" transform="translate(99.09 119.82)"/><path class="cls-15" d="M416,219.27c-1.56,2.81.93,3.19,2.47,4.14l1.53.91-.07-.06,3,6c0,.37.08.74.11,1.1a12.92,12.92,0,0,1-1.78,8.48c-.73,1.16-1.26,2.4-2.83,2.29a3.65,3.65,0,0,1-3.23-2.65,18.4,18.4,0,0,1-.47-3.89c.64-4.41-1.42-7.92-3.79-11.33a22.07,22.07,0,0,0-6.19-15c-1.22-3.81-4.09-6.38-6.81-9.07a2,2,0,0,0-1-1.93l-.07-.09-.92-1v0c0-1.3,0-2.61,0-3.91,1.28-1.24.9-2.68.53-4.13,1.05-3.08,2.64-1.13,4.23-.54,6.43,2.36,9.16,8.83,14.22,12.7l-.06-.08.15,9C414.61,213.32,415.69,216.26,416,219.27Z" transform="translate(99.09 119.82)"/><path class="cls-16" d="M390.93,270.22l2.2-.17c1.25.07,1.78-.59,1.79-1.77,4.31.11,8.42.26,12.07-3.11,2.42-2.23,6.09-.46,9.16-.94,3.89,2.67-1.62,3.79-1,5.93l-.33.26a3.37,3.37,0,0,1-.55,0c-6.3,1.31-11.79,4.8-18.06,6.4-12,3.07-24,4.83-36.35,2.49a10.1,10.1,0,0,0-2,0c-2.12-.38-4.24-.74-6.36-1.13s-2.69-1.68-2.65-3.59,1.35-2.42,3-2.39c1.83,0,3.81-.41,5.46.14C368.89,276.25,379.9,273.22,390.93,270.22Z" transform="translate(99.09 119.82)"/><path class="cls-14" d="M390,190.28l-4.14.05c-1.25-1.9-2.29-5.28-4.54-.74-1.25,2.54-3.66,1.42-5.55,1.92-3.29-1.49-5.78-4.09-8.59-6.26-.37-2.55.34-4.53,1.77-6.88,2.44-4,7-5.91,9-10.09l0,0,1.76-.26,2.55.16c.12,2.84,2.28,2.93,4.24,2.92,3.12,0,4.11.76,1.9,3.55-2.93,3.71-2.29,7.23.79,10.53A9.86,9.86,0,0,1,390,190.28Z" transform="translate(99.09 119.82)"/><path class="cls-15" d="M345,255.26c-7.24,3.27-14.52,2.25-21.81.21-1.51-.42-3-.88-3-2.78s1.61-2.17,3.17-2.49a95.22,95.22,0,0,1,21.69-2c7.61-.61,15.22,2.81,22.82-.08l5.09.11c2.53,4.37-1.2,4.88-3.76,6.1l-15.26,0C351,254.62,347.78,253.24,345,255.26Z" transform="translate(99.09 119.82)"/><path class="cls-15" d="M306.16,274a5.33,5.33,0,0,0,.78-3.71c7.38-.57,12.58,4.06,18.06,7.81,2,1.38.72,3.6-.08,5.41-3.76-.3-6.25,1.62-8.13,4.63-2.14.14-3.85,1.39-5.73,2.19-2.85-.29-4.71-2.2-6.63-4-1.28-1.79-.79-3.61-.12-5.45C305.13,278.61,306.39,276.5,306.16,274Z" transform="translate(99.09 119.82)"/><path class="cls-10" d="M351,293.3c2.79-3.3,7-1.7,9.84-1.46,7.75.65,15.46,0,23.16.44,2,.11,4.07-.28,5,2.11.4,4.54,5.16,6.83,10.07,4.86,1.09.19,2,.69,1.62,1.93-.46,1.45-1.92,1.23-3,1.05a83.71,83.71,0,0,0-15.73-1c-2.34.05-4,1.31-2.62,3.23,3.7,4.94,2.25,10.44,2.62,15.75l-1.93-1c-.16-1.17-.31-2.33-.47-3.5,0-3.15,2.43-7.06-2.71-8.59-2.42-7.35-2.73-7.7-11.77-6-6,1.12-11.65-.11-17.43-.93a2.81,2.81,0,0,1-2.7-3c2.4.65,4.74.84,6.86-.86,1.63.74,3.05,1.79,5,2.06,9.62,1.32,19.18-1.1,28.78-.34a1.8,1.8,0,0,0,2-1.81c0-1.5-1.18-1.95-2.39-2-3.83-.09-7.66-.19-11.49,0-7.29.28-14.64-1-21.88.78Z" transform="translate(99.09 119.82)"/><path class="cls-7" d="M266,136.26c.88-5.67,3.55-10.61,6.37-15.46,1.65-2.82,4-4.39,7.48-2.74a7.84,7.84,0,0,0,3.43.45c5-.14,8.29.64,6,7.1-.78,2.2,1.75,5.79,3.52,5.9,2.21.14,5.61-.51,6.91-3.57.51-1.2.93-2.45,1.38-3.69l.93,0c-.37,2.61-.77,5.22-1.1,7.84a2.23,2.23,0,0,1-1.78,2A11,11,0,0,1,286.93,130a35,35,0,0,0-3.6-4.11c-3.22-3.21-6.3-2.7-9.63.49-3,2.88-4.34,6.65-6.57,9.92Z" transform="translate(99.09 119.82)"/><path class="cls-10" d="M390.93,270.22c-11,3-22,6-33.56,2.17-1.65-.55-3.63-.12-5.46-.14-1.66,0-3,.35-3,2.39s.65,3.23,2.65,3.59,4.24.75,6.36,1.13c-3,3.66-7.52,1.11-11.11,2.56-.7.28-1.72-1.07-1.67-2.14a8.56,8.56,0,0,0-2.55-6.73c-.9-.94-.41-2.15.39-3.17a4.66,4.66,0,0,1,5.46-1.44c8.09,3.11,16.46,1.59,24.71,1.77,5.2.11,10.41-.56,15.62-.88A2.23,2.23,0,0,1,390.93,270.22Z" transform="translate(99.09 119.82)"/><path class="cls-6" d="M389.24,185.22c-3.08-3.3-3.72-6.82-.79-10.53,2.21-2.79,1.22-3.58-1.9-3.55-2,0-4.12-.08-4.25-2.92l.75-1.74,2-.17c-.17,1.62-.06,2.9,2.11,3,2.94.16,5.86.58,8.79.89-2.23,1.31-5.22,2.24-2.82,5.79-2.77.81-2.22,2.59-1.37,4.53,1.09,2.46,2.62,1.78,4.24.69L411,191.29a25.62,25.62,0,0,1,4.06,10c-5.06-3.87-7.79-10.34-14.22-12.7-1.59-.59-3.18-2.54-4.23.55C394.09,187.91,392.9,184.28,389.24,185.22Z" transform="translate(99.09 119.82)"/><path class="cls-6" d="M266,136.26l1.17.05c-.06,4.32.08,8.65-.23,12.95-.29,4,1.35,5.19,5.2,5.12a28.88,28.88,0,0,0,11.11-2.07c3.59-1.52,5.86-.42,5.87,3.79,0,3,.33,6.07-.24,9-1.24,6.22-3.22,12.17-9.88,14.89l.1-1.51c3.67-3.33,5.23-7.77,6.52-12.37.79-2.81,2.72-5.7,0-8.34-2.63-2.49-6.08-1-8.42-.05-2.51,1-3.82,2.07-5.57-.74-.41-.65-2.13-.54-3.25-.66-1.41-.14-3.17-.52-2.78-2.08,1.24-5-1.57-9.79-.6-14.75C265.14,138.32,264.94,137.11,266,136.26Z" transform="translate(99.09 119.82)"/><path class="cls-16" d="M335,356.27l-3,.07-6.17,0a8.29,8.29,0,0,0-4.3-1c-3.95-.25-5.87-2.06-5.72-6.4.19-5.23,3.75-2.65,6-3.08.11,2.05,1.59,2.75,3.25,3.26,6.64.18,13.21,1.74,19.9,1.13a4.4,4.4,0,0,0,0,1l-.09,3-.16-.05C341.45,354.63,338.09,354.85,335,356.27Z" transform="translate(99.09 119.82)"/><path class="cls-9" d="M314.24,205.08c4.25,1.09,8.46,2.89,12.76,3.1,8.08.38,12.46,5.69,17,11.08a3,3,0,0,0,.05.85c-1,.45-3.68-.77-2.08,2.15l-1.18.16c-2.18-3.14-2.35-8.21-7.86-8.12l.07,0c-.62-1.16-1.28-1-2-.07-4.47-1.38-9.31.63-13.79-1.84-1.62-.89-3.59-1.41-5.22-2.5A5.38,5.38,0,0,1,314.24,205.08Z" transform="translate(99.09 119.82)"/><path class="cls-10" d="M276,303.31c3.23-3.85,7.51-3.46,11.71-2.6a75.13,75.13,0,0,1,9.87,3c1.55.55,2.14.23,2.25-1.31,3.3-.38,6.59-1.19,9.74.89,1.12.74,1.37,1.17.39,2.08-1.71.56-3.4-1.73-5.12,0l-4,6c-6-4.77-13-5.79-20.34-6.24A6.55,6.55,0,0,1,276,303.31Z" transform="translate(99.09 119.82)"/><path class="cls-6" d="M420,302.29c-2.09,6.34-1.06,8.39,3.86,7.94,2-.18,3.1-.84,3.14-2.94,0-1.1-.25-2.5,1.39-2.72a2.35,2.35,0,0,1,2.41,1.42c1.91,4.06,4,2.18,6,.21,1.52-1.44,2.74-3.51,5.39-2.48.78,2.95-1.75,4.94-2.19,7.53-5.78-1.25-11.22,1.71-17,1.36-2.19-.14-1.86,2.6-2.16,4.38a6.18,6.18,0,0,1-4.19,5c-1.37.47-2.4-.86-3.13-2a1.24,1.24,0,0,1,.43-1.72c1.17.3,2.4,1.76,3.53.36s-.11-3.08-.54-4.6c1.37-2.58,1-5.19.13-7.81C418.65,305.35,417.22,302.28,420,302.29Z" transform="translate(99.09 119.82)"/><path class="cls-6" d="M331,98.19l8.16,7.91c-6,1.13-2.62,3.87-1.08,6.29-3.9,2.85-5.68,8-10.69,9.65-.44-3.93,3.24-5.53,4.91-8.21,2.56-4.11,2.56-7.13-1.19-10.35-5.87-5.07-12.92-5.16-20-5.29a4.81,4.81,0,0,1,.1-.84c4.62-.22,9.15-1.55,13.82-1.09C327.26,96.1,329,97.52,331,98.19Z" transform="translate(99.09 119.82)"/><path class="cls-6" d="M376.92,307.15c5.14,1.53,2.71,5.44,2.71,8.59-5.19,3.08-11.29,3.84-16.67,6.48-4.94-.22-9.91.5-14.82-.9-2.34-.67-4.34,0-4.32,3.09-3.37-2.29-2.32-4.05.86-5a13.37,13.37,0,0,1,8.25-.07c5.61,2,10.15-1.11,15.18-2.49C373.5,315.4,375.1,311.39,376.92,307.15Z" transform="translate(99.09 119.82)"/><path class="cls-10" d="M375.81,191.52c1.89-.51,4.3.61,5.55-1.93,2.25-4.54,3.29-1.16,4.54.74.21,2.61,1.48,5.07,1.08,7.76-1.26-.15-2-2.31-3.42-1.18-1.14.93-.42,2.41,0,3.69.56,1.87,1.75,3.61,1.3,5.71-1.19-.76-2.25-1.19-3.08.53-.53,1.09-.93,2.48-2.61,2.37C379.19,203.09,376.8,197.43,375.81,191.52Z" transform="translate(99.09 119.82)"/><path class="cls-6" d="M378.88,232.56l2.22-.06c1.3,1.56,3.78-.1,4.94,1.81-1.9,2-4.37,1.91-6.85,1.91-5.47,0-11-.58-16.27,1.65,0-1.29.38-2.69-1-3.63.26-4.34-2.52-8.66-.07-13,1.72,1.39.79,3.33,1.06,5,.24,1.45-.76,3.47,1.77,3.88.79,2.89,3.16,2.15,5.16,2.24s4.19.15,6.29.22A1.73,1.73,0,0,0,378.88,232.56Z" transform="translate(99.09 119.82)"/><path class="cls-5" d="M414.8,235.62a18.4,18.4,0,0,0,.47,3.89,3.65,3.65,0,0,0,3.23,2.65c1.57.11,2.1-1.13,2.83-2.29a12.92,12.92,0,0,0,1.78-8.48c4.77,2.33,5.35,5.12,2.08,10.09-2.6-.57-3.36,2.22-5.27,2.9a100.62,100.62,0,0,0-15.47.29C409.4,243.07,413.34,240.72,414.8,235.62Z" transform="translate(99.09 119.82)"/><path class="cls-5" d="M447.92,289.37c-.29-.05-.58-.12-.87-.19-2.87-2.84-3.95-6-2-9.86a3.82,3.82,0,0,0,.1-.9,1.79,1.79,0,0,0,1.76-2.2l1-1c3.57-.35,4.33-3.12,5.08-5.9l4-.16c-1.22,2.16-3.17,4.2-3.49,6.48-.56,3.9-5.63,6.07-3.8,10.67.06,1,.11,1.92.17,2.89Z" transform="translate(99.09 119.82)"/><path class="cls-8" d="M363,322.22c5.38-2.64,11.48-3.4,16.67-6.48.16,1.17.31,2.33.47,3.5s0,2.12.08,3.18l-1,1.11-1.5.58c-2.23.18-4.57-.22-6.52,1.32-1.08.26-2.78-3.71-3.27.49l-1.79-.05C365.91,323.92,362.57,324.67,363,322.22Z" transform="translate(99.09 119.82)"/><path class="cls-12" d="M363,322.22c-.39,2.45,3,1.7,3.14,3.65-5.92.09-11.8,1.74-17.77.38-1.63-.38-3.3-.5-4.51-1.84,0-3.07,2-3.76,4.32-3.09C353.05,322.72,358,322,363,322.22Z" transform="translate(99.09 119.82)"/><path class="cls-6" d="M300.84,311.36l4-6c1.48,7.2,6.74,10,13.21,11.47a10.82,10.82,0,0,0,2.78,5.61c-3,0-5.63-.43-7.62-3.24-1.63-2.3-4.44-3.21-7.17-3.93C303.82,314.63,301.74,313.78,300.84,311.36Z" transform="translate(99.09 119.82)"/><path class="cls-7" d="M321.84,345.93c-2.29.43-5.85-2.15-6,3.08-.15,4.34,1.77,6.15,5.72,6.4a8.29,8.29,0,0,1,4.3,1c-4.29,1.45-8.59,2-11.28-2.55-2.41-4.09.11-13.42,3.76-15.79a2.62,2.62,0,0,1,2.77-.41c1.11.61.73,1.64.41,2.61C320.84,342.17,320.55,344.11,321.84,345.93Z" transform="translate(99.09 119.82)"/><path class="cls-8" d="M448.71,320.13c-2.67,1.64-5.7,1.89-8.7,2.25-.4-.38-1.36-1.15-1-1.2,5.29-.61,4.17-4.61,4.37-7.92,1.1-1.26-.09-4.29,3.06-4a2.27,2.27,0,0,0,2.47,1.16C451.26,313.73,450.21,316.94,448.71,320.13Z" transform="translate(99.09 119.82)"/><path class="cls-7" d="M345,350.32c-6.69.61-13.26-.95-19.9-1.13.17-1.88,1.54-1.87,2.91-1.87l33.95-.05c1.18,0,2.37,0,3,1.32l-1.51.69a48,48,0,0,1-6.35-.12C352.91,348.57,348.78,347.52,345,350.32Z" transform="translate(99.09 119.82)"/><path class="cls-10" d="M449.75,286.29c-1.83-4.6,3.24-6.77,3.8-10.67.32-2.28,2.27-4.32,3.49-6.48,1.36-1.38,1.62-4.17,4.55-3.56l-.33,1.19c-1.86,3.47-3.6,6.89-2.34,11.1.6,2-.44,3.94-2.5,4C453.12,282,451.73,284.47,449.75,286.29Z" transform="translate(99.09 119.82)"/><path class="cls-12" d="M320.84,322.4a10.82,10.82,0,0,1-2.78-5.61,2.57,2.57,0,0,0,1.25-2.54l2-.81c.9,1.27,1.81,2.53,2.71,3.79,1.86,2.26,4.58,2.35,7.14,2.86.2.13.4.26.61.38.26,4.94-1.08,5.93-5.56,4.34-1.84-.66-3.08-2.66-5.33-2.36Z" transform="translate(99.09 119.82)"/><path class="cls-15" d="M319.31,314.25a2.57,2.57,0,0,1-1.25,2.54c-6.47-1.45-11.73-4.27-13.21-11.47,1.72-1.7,3.41.59,5.12,0a2.06,2.06,0,0,0,2.07.93Z" transform="translate(99.09 119.82)"/><path class="cls-7" d="M419.92,244.38c1.91-.68,2.67-3.47,5.27-2.9-.15,1.82-.34,3.56-1.83,5-1.71,1.59-3.64,3.25-.72,5.59.37.3.31,1.69-.06,2.25-.66,1-1.29-.13-2-.31-2.68-.7-5.4-1.24-8.11-1.8-.85-.18-1.71-.46-1.93-1.32-.37-1.46,1.27-1.14,1.73-1.72C414.29,246.57,419.29,249,419.92,244.38Z" transform="translate(99.09 119.82)"/><path class="cls-7" d="M446.45,358.16c1-2.44,3.26-3.47,5.39-4.05,4.52-1.24,4.85-3.36,2.1-6.67-.32-1-.65-2.07-1-3.11l5,.9a6.62,6.62,0,0,1-2.44,10.94A25.39,25.39,0,0,1,446.45,358.16Z" transform="translate(99.09 119.82)"/><path class="cls-7" d="M451.3,347.69a9.87,9.87,0,0,1-8.4,3.45c-7.09-.26-14.27.76-21.2-1.83-1.63-.61-3.62-.26-5.44-.35,2.6-3.3,5.85-1.71,8.74-.87a43.46,43.46,0,0,0,18.63,1.1c2.55-.36,2.5-4,5.23-4.05C449,346.68,450,347.28,451.3,347.69Z" transform="translate(99.09 119.82)"/><path class="cls-6" d="M319.31,314.25l-7.27-8c3.89-.12,7.86,1.49,11.69-.61a2.12,2.12,0,0,1,2.75.44,2.4,2.4,0,0,1-.24,3.21c-1.49,1.53-2.76,3.36-4.92,4.12Z" transform="translate(99.09 119.82)"/><path class="cls-7" d="M315,90.26a16.68,16.68,0,0,1,9.71,1.15c1.57.73,3.7,1.42.32,2.75-6.48-3.3-12.43-2.12-18,2.11l-5.9,2c1.84-4.08,5.53-5.86,8.92-8Z" transform="translate(99.09 119.82)"/><path class="cls-11" d="M415.18,270.16c-.65-2.14,4.86-3.26,1-5.93l6.11-1.58c2.91-.74,5.17-2.1,5.15-5.66,3.5,3.54,2.81,5.91-2.82,9C421.59,267.61,418.32,268.78,415.18,270.16Z" transform="translate(99.09 119.82)"/><path class="cls-10" d="M445.05,279.32c-1.95,3.82-.87,7,2,9.86-5.64,2.17-10.65,1.16-15-3l-.06-.82c4.24,1.28,7.79,1.19,9.51-3.94A3.47,3.47,0,0,1,445.05,279.32Z" transform="translate(99.09 119.82)"/><path class="cls-8" d="M433.54,200.05c6.72,1.71,8.62,5.17,7.82,14.26C439.06,209.38,433.17,206.43,433.54,200.05Z" transform="translate(99.09 119.82)"/><path class="cls-7" d="M432,285.38l.06.82c-3,0-6-.09-9,.11-2.38.15-5,.83-5.07,3.71-.08,3.63,3.11,1.83,4.89,2.35-2,1-4.13,2.31-6.29.77-1.55-1.1-3.41-2.54-1.89-4.91,1.67-2.58,3-5.81,7.13-4.79C425.16,284.27,428.43,285.49,432,285.38Z" transform="translate(99.09 119.82)"/><path class="cls-11" d="M306,207.36c-3.23-.87-6.56-1.51-9-4.07.89-.19,2.1.31,2.57-.79a1.44,1.44,0,0,0-1-1.91c-1.94-.58-2.43-2.48-3.66-3.69-.42-1-.85-2-1.27-2.93l.33-2.7h2.16c-.62,5.8,4.39,6.88,7.8,9.29C303.34,203.23,305.67,205,306,207.36Z" transform="translate(99.09 119.82)"/><path class="cls-3" d="M307,96.27c5.6-4.23,11.55-5.41,18-2.11l0,2.1c-4.67-.46-9.2.87-13.83,1.09l-2.26,0-1.85,0Z" transform="translate(99.09 119.82)"/><path class="cls-6" d="M302,124.27l-.93,0c-3.17-1.88-6-3.88-6.93-7.94s0-6.68,3.83-8.21l-.77,2.27c.92,4.17.62,9,5.53,11.15C302.82,122.53,303.19,123.61,302,124.27Z" transform="translate(99.09 119.82)"/><path class="cls-9" d="M363.4,349.28l1.51-.69a3.58,3.58,0,0,1,1-.16c.76,1.6,1.51,3.19,2.26,4.79-7.73.69-15.56-1-23.22,1l.09-3c4.63,0,9.27,0,13.9,0C360.66,351.25,362.69,351.73,363.4,349.28Z" transform="translate(99.09 119.82)"/><path class="cls-6" d="M306,207.36c-.34-2.38-2.67-4.13-2.13-6.79,3.35-.23,5.65,3.38,9.17,2.52l.25,0h.25c.23.67.45,1.35.68,2a5.39,5.39,0,0,0-2.2,4.85C309.73,209.74,307.41,209.62,306,207.36Z" transform="translate(99.09 119.82)"/><path class="cls-5" d="M362,234.24c1.34.94.94,2.34,1,3.63l-1.87,0c-.7-1.9-1.72-2.08-3.06-.58-4.82-.18-10.11,1.16-13.4-4.07C350.49,231.59,356.08,235.4,362,234.24Z" transform="translate(99.09 119.82)"/><path class="cls-6" d="M320.89,322.45c2.25-.3,3.49,1.7,5.33,2.36,4.48,1.59,5.82.6,5.56-4.34,4.59.41,3.22,4,2.91,6.34-.43,3.32-3,2.24-5,1.44C326.43,326.89,322.18,326.89,320.89,322.45Z" transform="translate(99.09 119.82)"/><path class="cls-11" d="M470.53,290.37c-2.17-1.49-.67-4.3-2.16-6,0-1.26.05-2.53.08-3.79,1.05-.51,2-1.07.67-2.29-.3-2.84.22-5.36,2.85-7,3.19,4.73-1,9.22-.51,13.9C471.63,286.84,470.87,288.62,470.53,290.37Z" transform="translate(99.09 119.82)"/><path class="cls-11" d="M427.5,190.09a5.63,5.63,0,0,1,0-1.92c.82-2.09.41-6.11,3.47-5.35,2.83.7,3.39,4.25,2.21,7.31-.23.61-.51,1.19-.77,1.79C430.34,192.46,428.89,191.35,427.5,190.09Z" transform="translate(99.09 119.82)"/><path class="cls-5" d="M404.82,209.33a22.07,22.07,0,0,1,6.19,15c-4.79-3.84-6.47-9.36-8.09-14.91Z" transform="translate(99.09 119.82)"/><path class="cls-9" d="M386,234.31c-1.16-1.91-3.64-.25-4.94-1.81,3.82-.11,7.65-.4,11.46-.28,3.14.11,4.66-.85,4.44-4.22-.17-2.48.08-5,.14-7.48,2,4.61,3.54,9.21-.07,13.78l-1.3.09Z" transform="translate(99.09 119.82)"/><path class="cls-7" d="M279.06,178.43c0,.5-.06,1-.1,1.51-1.18,2.95-.22,5.11,2.07,7.22,2.62,2.4,5.48,4.68,7,8.07v0a23.76,23.76,0,0,1-10.77-8.75C275.18,183.52,274.88,180.31,279.06,178.43Z" transform="translate(99.09 119.82)"/><path class="cls-9" d="M306.16,274c.23,2.51-1,4.62-1.85,6.85-.67,1.84-1.16,3.66.12,5.45l-3.38-1.08C297.71,278.86,298.6,276.91,306.16,274Z" transform="translate(99.09 119.82)"/><path class="cls-7" d="M404.82,209.33l-1.9,0,.05-.07-1.43-1c-3.65-2.45-5.45-6.32-7.6-9.92a2.28,2.28,0,0,1,2.11-1.18v0l.92,1,.07.09a2,2,0,0,0,1,1.93C400.73,203,403.6,205.52,404.82,209.33Z" transform="translate(99.09 119.82)"/><path class="cls-7" d="M389.24,185.22c3.66-.94,4.85,2.69,7.32,4,.37,1.44.75,2.88-.53,4.12-2.92,2.49-3-2.71-5.23-2-.26-.35-.51-.71-.76-1.06A9.86,9.86,0,0,0,389.24,185.22Z" transform="translate(99.09 119.82)"/><path class="cls-8" d="M461.26,266.77l.33-1.19,2.68-4.79,1.26-.25a24.42,24.42,0,0,1,1.73,3.57c.51,1.69-.68,2.84-1.82,3.8C463.6,269.45,462.46,267.89,461.26,266.77Z" transform="translate(99.09 119.82)"/><path class="cls-12" d="M399.1,299.25c-4.91,2-9.67-.32-10.07-4.86C392.79,295.17,396.93,295.16,399.1,299.25Z" transform="translate(99.09 119.82)"/><path class="cls-7" d="M416,219.27c-.34-3-1.42-6-.93-9l2-2C420.29,211.77,419.75,217.13,416,219.27Z" transform="translate(99.09 119.82)"/><path class="cls-11" d="M340.8,222.42l1.18-.16,2,4.16.28,5.18c.07.57.15,1.14.22,1.71-3.24,1.05-5.49.79-4-3.46.65-1.83.34-3.62.47-5.42Z" transform="translate(99.09 119.82)"/><path class="cls-11" d="M316.79,288.13c1.88-3,4.37-4.93,8.13-4.63-.31,5-4.32,5.9-8,7.16C316.89,289.82,316.84,289,316.79,288.13Z" transform="translate(99.09 119.82)"/><path class="cls-10" d="M367.86,248.16c-7.6,2.89-15.21-.53-22.82.08A56.76,56.76,0,0,1,367.86,248.16Z" transform="translate(99.09 119.82)"/><path class="cls-10" d="M297.18,110.37l.77-2.27c.49-4.52,4.06-6.52,7.29-8.69.87-.58,1.69-.91,1.82-2l1.85,0,1,.94c-4.31,3.41-9.82,5.72-11.13,11.94Z" transform="translate(99.09 119.82)"/><path class="cls-12" d="M446.46,309.29c-3.15-.32-2,2.71-3.06,4-.38-1.95-1.79-2.15-3.4-2,.44-2.59,3-4.58,2.19-7.53,1-.78,2.31-2,2.14.6s.94,4,3.43,4.36Z" transform="translate(99.09 119.82)"/><path class="cls-5" d="M420,302.29c-2.75,0-1.32,3.06-2.89,3.92.19-2.2-3.82-4-.71-6.45,2.62-2.05,5.14-.89,7.55.62l-2.9,1.77Z" transform="translate(99.09 119.82)"/><path class="cls-10" d="M446.46,309.29l1.3-.61a34.83,34.83,0,0,0,.16-19.31l2-.19c.35,5-.67,10.13,1.07,15.05.92,2.61-1.63,4.06-2.06,6.22A2.27,2.27,0,0,1,446.46,309.29Z" transform="translate(99.09 119.82)"/><path class="cls-10" d="M465.53,260.54l-1.26.25c-.32-1.28-.67-2.55-1-3.84-.25-1.14-2-2.5-.1-3.38a5,5,0,0,1,3.83.13c1.46.7,1,2.28.45,3.53S467,259.9,465.53,260.54Z" transform="translate(99.09 119.82)"/><path class="cls-8" d="M340.8,222.42l.15,2-2-1.08c-1.19-1.76-1.77-4-3.75-5.16l-.05-.07-1-1c-.68-.81-1.94-1.36-1.22-2.78C338.45,214.21,338.62,219.28,340.8,222.42Z" transform="translate(99.09 119.82)"/><path class="cls-12" d="M351.88,296.42c-2.12,1.7-4.46,1.51-6.86.86l-.24-2.06,3.21-2,3,.09c.3.6.59,1.2.88,1.81C351.87,295.55,351.87,296,351.88,296.42Z" transform="translate(99.09 119.82)"/><path class="cls-7" d="M369.19,254.37c2.56-1.22,6.29-1.73,3.76-6.1,2.1.35,4.42,1.42,3.44,3.6C375.16,254.6,372.62,256.51,369.19,254.37Z" transform="translate(99.09 119.82)"/><path class="cls-8" d="M294.86,196.9c1.23,1.21,1.72,3.11,3.66,3.69a1.44,1.44,0,0,1,1,1.91c-.47,1.1-1.68.6-2.57.79h0l-1.15-1-.89-.8a1.67,1.67,0,0,0-2-1.25c-1-.34-1-1.14-1-2Z" transform="translate(99.09 119.82)"/><path class="cls-11" d="M400.43,248.5c1.78-.19,2.42.65,2.5,2s-.89,2.09-2.11,2.3-2.39-.21-2.49-1.67A2.4,2.4,0,0,1,400.43,248.5Z" transform="translate(99.09 119.82)"/><path class="cls-6" d="M390.8,191.34c2.27-.75,2.31,4.45,5.23,2,0,1.3,0,2.61,0,3.91a2.28,2.28,0,0,0-2.11,1.18C391.46,196.68,391,194.07,390.8,191.34Z" transform="translate(99.09 119.82)"/><path class="cls-7" d="M294.86,196.9,292,198.26c-2.13.07-3.91-.33-4-3v0c2.05.45,3.83-.31,5.56-1.26C294,195,294.44,195.92,294.86,196.9Z" transform="translate(99.09 119.82)"/><path class="cls-7" d="M316.79,288.13c0,.85.1,1.69.14,2.53-2.07,1.87-4.11,3.18-5.87-.34C312.94,289.52,314.65,288.27,316.79,288.13Z" transform="translate(99.09 119.82)"/><path class="cls-10" d="M413.55,327.24a3.46,3.46,0,0,1-3.1-2.63c-.25-1.35,1.17-1.4,2.1-1.21,1.42.29,3.13.59,3.26,2.42C415.9,327.07,414.72,327.26,413.55,327.24Z" transform="translate(99.09 119.82)"/><path class="cls-11" d="M417,314c.43,1.52,1.78,3.06.54,4.6s-2.36-.06-3.53-.36C413.74,316,413.83,314,417,314Z" transform="translate(99.09 119.82)"/><path class="cls-10" d="M345,255.26c2.81-2,6-.64,9-.93C351.24,257.51,348.14,256.68,345,255.26Z" transform="translate(99.09 119.82)"/><path class="cls-10" d="M453,269.3c-.75,2.78-1.51,5.55-5.08,5.9C448.74,272.45,449.56,269.73,453,269.3Z" transform="translate(99.09 119.82)"/><path class="cls-5" d="M423,230.29l-3-6,4,.09,1.08,2C424,227.43,422.21,228.19,423,230.29Z" transform="translate(99.09 119.82)"/><path class="cls-7" d="M371.16,325.43c1.95-1.54,4.29-1.14,6.52-1.32l1.4.21c-2.05,3.76-5.47,1.31-8.24,1.8A4.32,4.32,0,0,1,371.16,325.43Z" transform="translate(99.09 119.82)"/><path class="cls-6" d="M331.17,320.09c-2.56-.51-5.28-.6-7.14-2.86C326.27,318.54,330.79,314.13,331.17,320.09Z" transform="translate(99.09 119.82)"/><path class="cls-5" d="M451.3,347.69c-1.27-.41-2.35-1-2.44-2.55,1.05-1.9,2.41-2.2,4.11-.81.32,1,.65,2.07,1,3.11Z" transform="translate(99.09 119.82)"/><path class="cls-6" d="M417.13,208.22l-2,2-.15-9C418.27,202.76,415.91,206.05,417.13,208.22Z" transform="translate(99.09 119.82)"/><path class="cls-3" d="M315,90.26l-5,.06c.07-1.6.71-2.87,2.45-2.9S314.89,88.66,315,90.26Z" transform="translate(99.09 119.82)"/><path class="cls-7" d="M425.08,226.34l-1.08-2c1-1.07,2.47-2.7,3.48-1.21C428.72,225,426.85,226,425.08,226.34Z" transform="translate(99.09 119.82)"/><path class="cls-9" d="M335.17,218.19c2,1.19,2.56,3.4,3.75,5.16C335.55,223.17,335.05,220.91,335.17,218.19Z" transform="translate(99.09 119.82)"/><path class="cls-10" d="M348,293.21l-3.21,2c-.79-.77-1.06-1.75-.15-2.44A2.27,2.27,0,0,1,348,293.21Z" transform="translate(99.09 119.82)"/><path class="cls-12" d="M371.16,325.43a4.32,4.32,0,0,0-.32.69l-2.95-.2C368.38,321.72,370.08,325.69,371.16,325.43Z" transform="translate(99.09 119.82)"/><path class="cls-6" d="M358,237.31c1.34-1.5,2.36-1.32,3.06.58C359.92,238.28,358.85,238.38,358,237.31Z" transform="translate(99.09 119.82)"/><path class="cls-9" d="M451,247.24l5,0,.84,1.16-5.95-.31C451,247.83,451,247.53,451,247.24Z" transform="translate(99.09 119.82)"/><path class="cls-6" d="M380.18,322.42c0-1.06-.05-2.12-.08-3.18l1.93,1A1.86,1.86,0,0,1,380.18,322.42Z" transform="translate(99.09 119.82)"/><path class="cls-6" d="M421,302.15l2.9-1.77,1.08-.1C424.58,302.83,422.66,302.19,421,302.15Z" transform="translate(99.09 119.82)"/><path class="cls-11" d="M266.48,296.31c2.25-.16,2.6,1.23,2.49,3C267.47,298.87,266.94,297.63,266.48,296.31Z" transform="translate(99.09 119.82)"/><path class="cls-7" d="M425.14,292.45a1.5,1.5,0,0,1,1.68,1.68C425.66,294.17,425.09,293.62,425.14,292.45Z" transform="translate(99.09 119.82)"/><path class="cls-10" d="M394.92,268.28c0,1.18-.54,1.84-1.79,1.77C393.11,268.83,393.85,268.39,394.92,268.28Z" transform="translate(99.09 119.82)"/><path class="cls-7" d="M469.12,278.27c1.31,1.22.38,1.78-.67,2.29A1.55,1.55,0,0,1,469.12,278.27Z" transform="translate(99.09 119.82)"/><path class="cls-10" d="M388.16,200.09c-.88-.29-1-1-1-1.78C388.13,198.57,389.39,198.65,388.16,200.09Z" transform="translate(99.09 119.82)"/><path class="cls-10" d="M446.91,276.22a1.79,1.79,0,0,1-1.76,2.2A1.7,1.7,0,0,1,446.91,276.22Z" transform="translate(99.09 119.82)"/><path class="cls-5" d="M268,113.31c.15-.61-.42-2.1,1.18-1Z" transform="translate(99.09 119.82)"/><path class="cls-11" d="M293,200.26a1.67,1.67,0,0,1,2,1.25A2.3,2.3,0,0,1,293,200.26Z" transform="translate(99.09 119.82)"/><path class="cls-5" d="M420,224.32l-1.53-.91Z" transform="translate(99.09 119.82)"/><path class="cls-8" d="M331,214.27c.69-.92,1.35-1.09,2,.07Z" transform="translate(99.09 119.82)"/><path class="cls-5" d="M265.94,331.22c-.11.46-.21.92-.32,1.39l-.78-.51C265.2,331.8,265.57,331.51,265.94,331.22Z" transform="translate(99.09 119.82)"/><path class="cls-6" d="M379.08,324.32l-1.4-.21,1.5-.58A2.64,2.64,0,0,1,379.08,324.32Z" transform="translate(99.09 119.82)"/><path class="cls-11" d="M295.84,202.31l1.15,1Z" transform="translate(99.09 119.82)"/><path class="cls-9" d="M334.16,217.08l1,1Z" transform="translate(99.09 119.82)"/><path class="cls-11" d="M414.3,270.44a3.37,3.37,0,0,0,.55,0l-.27.17Z" transform="translate(99.09 119.82)"/><path class="cls-5" d="M294.15,324.18c-.35.59-.7,1-1.12.05Z" transform="translate(99.09 119.82)"/><path class="cls-6" d="M395.77,234.39l1.3-.09C396.68,235,396.24,234.86,395.77,234.39Z" transform="translate(99.09 119.82)"/><path class="cls-5" d="M401.54,208.31l1.43,1Z" transform="translate(99.09 119.82)"/><path class="cls-13" d="M430,136.51c-2.62-.53-3.72,1.13-3.83,3.21a5.64,5.64,0,0,1-2.21,4.55c-6-1.58-12.65-1.43-17-7,7.77-1.75,15.56-3.43,23.31-5.29a14.38,14.38,0,0,1,4.86-.62C433.67,133.29,431.13,134.18,430,136.51Z" transform="translate(99.09 119.82)"/><path class="cls-13" d="M467,155.34c-.65,1.29-1.8,2.57-1.83,3.87-.07,2.88-.77,5.16-4,4.92s-5.27-2.54-5.93-5.68c-.29-1.35-.64-3,.52-4.25a10.13,10.13,0,0,0,7.7.72C464.8,154.59,466,153.87,467,155.34Z" transform="translate(99.09 119.82)"/><path class="cls-12" d="M446.84,231.33l-2.33.77c-.68-10,.14-14.1,3.8-18.38,1.57,4.48-.72,9.35,1.73,13.54C450.59,229.89,448.34,230.31,446.84,231.33Z" transform="translate(99.09 119.82)"/><path class="cls-2" d="M407,170.33l5.84,1.95c2.34,3.27,1.15,5-2.44,5.85-1.74.39-3.45.94-5.17,1.42l-2.09,0c-.42-1.51-2.52-3.56.69-4.14S407.05,172.7,407,170.33Z" transform="translate(99.09 119.82)"/><path class="cls-12" d="M405.23,179.55c1.72-.48,3.43-1,5.17-1.42,3.59-.82,4.78-2.58,2.44-5.85a3.13,3.13,0,0,1,2.89,1.19c.4,1.84.22,3.9,2.29,5,1.55.85.46,1.89,0,2.85l-1.86.21a17.7,17.7,0,0,0-6.86.45C407.33,182.6,405.24,182.63,405.23,179.55Z" transform="translate(99.09 119.82)"/><path class="cls-11" d="M475.06,228.28c-2.37,2.7-5,2.33-7.8.71-.31-1.92.47-3.59,1.29-5.2a3.29,3.29,0,0,1,3.27-1.87c1.79.3,1.08,2.09,1.29,3.3.24.38.49.76.73,1.15l0,.09A2,2,0,0,0,475.06,228.28Z" transform="translate(99.09 119.82)"/><path class="cls-7" d="M475.06,228.28a2,2,0,0,1-1.19-1.82c4.82-.58,8.33-4.51,13.12-5.16C485.35,227.62,479.57,226.87,475.06,228.28Z" transform="translate(99.09 119.82)"/><path class="cls-7" d="M495.09,211.35c-.39,2-.78,4-1.18,6-2.2,1-3.1,3.94-6,3.93C487.42,215.87,491.12,213.52,495.09,211.35Z" transform="translate(99.09 119.82)"/><path class="cls-6" d="M405.23,179.55c0,3.08,2.1,3,4.1,2.45a17.7,17.7,0,0,1,6.86-.45c-5.82,4.17-11.16,3.34-13.05-2Z" transform="translate(99.09 119.82)"/><path class="cls-12" d="M464.09,142.34c-2.15-2.93,1.92-3.41,2.13-5.41a5.25,5.25,0,0,0,1.06,1c1.5.78,3.15,1.81,2.53,3.61-.71,2.05-2.78.77-4.26.89A10.31,10.31,0,0,1,464.09,142.34Z" transform="translate(99.09 119.82)"/><path class="cls-8" d="M396,181.23c-1.62,1.09-3.15,1.77-4.24-.69-.85-1.94-1.4-3.72,1.37-4.53l.13.18c.25.38.49.76.73,1.14Z" transform="translate(99.09 119.82)"/><path class="cls-10" d="M442.27,233.42c1.4,2.05.88,4-.35,5.88-1.67-.2-3-1-2.71-2.79C439.44,234.89,440,233.22,442.27,233.42Z" transform="translate(99.09 119.82)"/><path class="cls-5" d="M445,188.24c3.86,1.43,1.32,4.62,1.9,6.95l-1.83,1c-.12-2.26-.25-4.52-.37-6.79Z" transform="translate(99.09 119.82)"/><path class="cls-6" d="M453.15,117.27c1,.58,3.09-.2,2.8,2.12-1.48-.39-3.42.29-4.2-1.76Z" transform="translate(99.09 119.82)"/><path class="cls-5" d="M466,122.3a5.58,5.58,0,0,1,4.22,2C468,125.36,466.93,123.94,466,122.3Z" transform="translate(99.09 119.82)"/><path class="cls-10" d="M445.06,196.18l1.83-1c0,.91.45,2.13-.65,2.5S445.2,196.91,445.06,196.18Z" transform="translate(99.09 119.82)"/><path class="cls-10" d="M445,188.24l-.3,1.15c-.69-.27-1.68-.5-1.11-1.48C444,187.23,444.62,187.68,445,188.24Z" transform="translate(99.09 119.82)"/><path class="cls-6" d="M485,141.25c1.52-.77.68.65,1,1Z" transform="translate(99.09 119.82)"/><path class="cls-6" d="M471,125.16a2.37,2.37,0,0,1,1,2.14A2,2,0,0,1,471,125.16Z" transform="translate(99.09 119.82)"/><path class="cls-6" d="M394,177.33c-.24-.38-.48-.76-.73-1.14C393.52,176.57,393.76,177,394,177.33Z" transform="translate(99.09 119.82)"/><path class="cls-5" d="M482.62,190.87l1-1c.14.13.28.26.41.4l-1,1C482.88,191.15,482.74,191,482.62,190.87Z" transform="translate(99.09 119.82)"/><path class="cls-7" d="M473.84,226.37c-.24-.39-.49-.77-.73-1.15C473.35,225.6,473.6,226,473.84,226.37Z" transform="translate(99.09 119.82)"/><path class="cls-13" d="M488.07,269.33c0,1.08-.22,2.21.83,3,.56,5.26,1.41,6,6.11,4,5.74-2.46,11.27-5.44,16.89-8.19,1.73,3.36,5.34,5.3,8.2,4.55,4.52-1.19,8.21-1.12,11.9,1.59-.1,1.6.28,2.75,2.14,3.2,1.37.34,2.82,1,2.85,2.84-6.85,2.87-11.36,9.14-18,12.36l-2.09.47c-4.87-.41-10.55,2.1-13.89-3.86-3.82-.26-5,2-5,5.3s1.95,4.33,4.47,3.21c4.86-2.15,9.68-1.53,14.59-.79,1.56.69,2.59-.95,4-.91-.14,2.2,1.46,2.09,2.9,2.18h0c.21.38.44.71.83.16,2.39-.28,4,1.78,6.26,2,1.54,3.45,4.84,3.25,7.8,3.77,1.21,3.78,5.6,6.44,3.93,11.23-2.13,4.15-2.71,8.4-.82,12.81-14.87-6.47-29.91-12.53-45.23-17.88a6.87,6.87,0,0,1-3.27-2.14c-1.86-2.33-3.72-3.69-6.46-1-1.3,1.27-2.52.9-3.62-.75-.93-1.4-2.63-1.93-4.3-2.23a28.42,28.42,0,0,1-2.05-23.91,2,2,0,0,0,.94-2l0-.05c2.87-.93,2.33-3.71,3.13-5.76l2.13-2.17.76-.78.18-.21,1.84-1A1.94,1.94,0,0,1,488.07,269.33ZM510.64,277a3.84,3.84,0,0,0-3.22-2.6c-1-.1-2.28,0-1.88,1.43a3.53,3.53,0,0,0,3.37,2.42C509.76,278.29,510.54,278.1,510.64,277Zm6,12-.83-.37c-.12.27-.4.61-.32.81s.51.27.79.39Z" transform="translate(99.09 119.82)"/><path class="cls-13" d="M574,326.29l0,11c-2.75,3.95-6.1,4.26-10.15,2-4.57-2.6-9.27-5-13.93-7.42-1.06-.56-2-1.2-2.06-2.55.77-3.25,3.21-3.13,5.83-3.11,5.47.05,6.53-1.89,4.18-7.28-3.21,4.52-3.21,4.52-10.83,4.38,0-3,1.59-5.51,2.36-8.27,1.56,0,3.17.7,4.72-.26-1.46-2-.9-4.22-1.16-6.32a9.18,9.18,0,0,1,.09-1.49c1-4.39-3-10.45,4.32-12.82.85-.27.58-1.75.19-2.73-.55-1.42-1-2.86.46-4.07,2.79.46,1.91,2.67,2,4.33.44,6.85-1.35,14,2.71,20.35.57.9-.1,1.89-.44,2.83-2.4,6.76.61,10.32,7.85,9.31a21,21,0,0,0,2.86-.81C574,324,573.88,325.2,574,326.29ZM564.56,329c-.25-.11-.54-.35-.74-.29s-.23.45-.34.7c.25.11.55.35.74.29S564.45,329.28,564.56,329Z" transform="translate(99.09 119.82)"/><path class="cls-10" d="M542,275.27c-.08-4.3-.19-8.58,2-12.56.73-1.34,1.32-3.09,2.91-2.92,1.75.19,1.77,2.39,1.87,3.63.31,4,.17,7.94.21,11.92-3.62-.6-3.74,1.91-3.9,4.39-1.63,1.46.17,3-.13,4.52-2-.12-2.69-2.05-4.09-3,0-.35,0-.69,0-1C542,278.76,542.09,277,542,275.27Z" transform="translate(99.09 119.82)"/><path class="cls-10" d="M558,287.27c-1.45,1.21-1,2.65-.46,4.07.39,1,.66,2.46-.19,2.73C550,296.44,554,302.5,553,306.89a9.18,9.18,0,0,0-.09,1.49l-1.07-.31c0-1.81.43-3.69.07-5.42-1.52-7.17-1-14.35-.43-21.54l6.32-1.87c1.34.63,1.13,1.86,1.17,3-2.08.44-2.63,1.39-1,3C558,285.94,558,286.61,558,287.27Z" transform="translate(99.09 119.82)"/><path class="cls-7" d="M519,292.68c6.62-3.22,11.13-9.49,18-12.36l2,1c.31,5.87-5,3-7.59,4.58.72,1.94,2.62,1.49,3.65,2.41-1.48,2.79-3.49,4.37-7,4-2-.2-4.12.61-6.18,1A2.94,2.94,0,0,1,519,292.68Z" transform="translate(99.09 119.82)"/><path class="cls-13" d="M535,288.28c-1-.92-2.93-.47-3.65-2.41,2.55-1.55,7.9,1.29,7.59-4.58l1.88,0c1.39.95,2.07,2.88,4.08,3,0,1.69,0,3.39,0,5.08a9.66,9.66,0,0,1-4.95-1.06C538.32,286.88,536.68,288.21,535,288.28Z" transform="translate(99.09 119.82)"/><path class="cls-11" d="M557.8,279.24l-6.32,1.86c-1.66-2.67-4.33-.68-6.41-1.37.16-2.48.28-5,3.9-4.39l1.79,1.13c.45,1.32,1.26,2.84,2.69,2.07,1.2-.65-.4-1.57-.8-2.37.11-.31.21-.62.33-.93l3.1-.13C556.92,276.38,558.55,277.31,557.8,279.24Z" transform="translate(99.09 119.82)"/><path class="cls-10" d="M556.08,275.11l-3.1.13c-.87-5.07-1.66-10.15,0-15.3C554.93,264.83,552.49,270.61,556.08,275.11Z" transform="translate(99.09 119.82)"/><path class="cls-13" d="M534.35,271c-1.45.75,1.92,3.67-1.36,3.18-2.13-.31-.57-2.86-1.51-4.2-.53-.76.19-1.63,1.18-1.49C534.06,268.66,535.17,269.26,534.35,271Z" transform="translate(99.09 119.82)"/><path class="cls-13" d="M542,275.27c.1,1.77,0,3.49-1.16,5C539.74,278.23,538.9,276.29,542,275.27Z" transform="translate(99.09 119.82)"/><path class="cls-13" d="M558,285.28c-1.64-1.65-1.09-2.6,1-3C559.52,283.54,560.66,285,558,285.28Z" transform="translate(99.09 119.82)"/><path class="cls-10" d="M552.65,276.17c.4.8,2,1.72.8,2.37-1.43.77-2.24-.75-2.69-2.07Z" transform="translate(99.09 119.82)"/><path class="cls-14" d="M313.05,203.09c-3.52.86-5.82-2.75-9.17-2.52-3.41-2.41-8.42-3.49-7.8-9.29,5.09-1.45,8.88-4.69,12-8.81a33.58,33.58,0,0,1,11.61-1.11c3,.28,6,1.77,9.14.6,2.46-.63,4.46-.43,4.86,2.68-.31,2.3-4.87,6,1.92,6l2.37.64,0,3.33a16.7,16.7,0,0,1-8.22,3.13,92.1,92.1,0,0,0-12.74,1.77C315.55,199.84,311.56,198.85,313.05,203.09Z" transform="translate(99.09 119.82)"/><path class="cls-10" d="M365,144.23c2.87,0,1.38,3.19,3,4.08-1.38,4-1.6,8.64-6.12,10.87-.39-2-1.72-3.28-3.5-4.39-.62,5.34-3.1,8.69-8.39,9.48-4.48-1.14-5.53-3.2-4.07-8,4.16.91,5.05-2.15,6.08-5a3.79,3.79,0,0,1,5.64.33c2.18,2.26,3.61,1.19,5.23-.59A8.7,8.7,0,0,0,365,144.23Z" transform="translate(99.09 119.82)"/><path class="cls-11" d="M313.05,203.09c-1.49-4.24,2.5-3.25,4-3.6a92.1,92.1,0,0,1,12.74-1.77,16.7,16.7,0,0,0,8.22-3.13c1.46,1.57,1.58,2.19-.24,2.85-4.52,1.64-6.52,4.51-5.2,9.37-2.9,0-2.81-2.87-4.47-3.74-.19-.4-.37-.79-.55-1.19l-.72,1.07-13.3.11h-.25Z" transform="translate(99.09 119.82)"/><path class="cls-10" d="M349.91,223.35c1.83-6.37,2.19-12.54-2.21-18.17-1.13-1.44-.89-3.24-.46-4.8.48-1.73,2.44-2.8,3.07-.79,1.22,3.86,3.88,1.74,6.73,2-4.29,5.51-4.3,11.46-4.14,17.51.07,2.35.16,5.08-2.82,6.22Z" transform="translate(99.09 119.82)"/><path class="cls-6" d="M359.57,183.35c-1.95,1.44-4.7.89-6.51,3.12-1.65,2-2.47,4-1.64,6.28s3.06,1.44,4.76,1.5c6.59.21,8.38,2,8.59,9.05l-2.58-.91c-1.29-3.86-3.22-6.29-8-6.44-5.22-.17-6.77-3.91-4.44-8.88,1.83-3.89,5.26-5.72,9.16-6.88l1.18,1.14Z" transform="translate(99.09 119.82)"/><path class="cls-11" d="M360.08,181.33l-1.18-1.14c2.93-3.95,7.47-5.84,11.22-8.76l7.91-3.15c-2,4.18-6.6,6.08-9,10.09-1.43,2.35-2.14,4.33-1.77,6.88H364l-.06-1c-.22-1.24,1.59-2.55.22-3.6S361.43,180.86,360.08,181.33Z" transform="translate(99.09 119.82)"/><path class="cls-9" d="M345.9,156.32c-1.46,4.75-.41,6.81,4.07,8,.07,2.29.43,4.47,2.18,6.16-2.25,1.76-1.12,5.55-4.11,6.86-2.32-1-3.64,2.54-6,1.31a11.39,11.39,0,0,1,.78-1.25c1.73-2.17,4.68-3.47,5.33-6.36.77-3.4-2.77-4.54-4.19-6.83-2.1-3.39-1-8.36,2.07-9.9Z" transform="translate(99.09 119.82)"/><path class="cls-11" d="M362.19,202.39l2.58.91c0,4.47-.08,8.87,1.68,13.23,1.88,4.66-2.13,8.93-1.73,13.62-2.53-.41-1.53-2.43-1.77-3.88-.27-1.7.66-3.64-1.06-5,0-.65,0-1.3,0-2,2-2.25.83-4.82.75-7.28A24.18,24.18,0,0,0,362.19,202.39Z" transform="translate(99.09 119.82)"/><path class="cls-11" d="M352.15,170.43c-1.75-1.69-2.11-3.87-2.18-6.16,5.29-.79,7.77-4.14,8.39-9.48,1.78,1.11,3.11,2.35,3.5,4.39Z" transform="translate(99.09 119.82)"/><path class="cls-12" d="M335.63,190.62c-6.79,0-2.23-3.68-1.92-6,2-.85.31-3.55,2.25-4.41l2.94-.14c2.91,3.12-2.49,5.1-1.11,8l-.52,1C336.35,189.2,336,189.86,335.63,190.62Z" transform="translate(99.09 119.82)"/><path class="cls-6" d="M337.79,188.1c-1.38-2.91,4-4.89,1.11-8,.51-1.62,1.73-1.74,3.13-1.49,2.37,1.23,3.69-2.3,6-1.31C346.14,182.33,340.82,184.13,337.79,188.1Z" transform="translate(99.09 119.82)"/><path class="cls-8" d="M349.91,223.35l.17,2-1,1-1.94.59-3.12-.48-2-4.16c-1.6-2.92,1.11-1.7,2.08-2.15,1.61.55,2.18,2.6,4,2.8Z" transform="translate(99.09 119.82)"/><path class="cls-10" d="M378,168.28l-7.91,3.15c1-4.72,4-5.84,8.3-4.69l-.42,1.58Z" transform="translate(99.09 119.82)"/><path class="cls-6" d="M362.65,212c.08,2.46,1.2,5-.75,7.28C360.73,216.71,359.93,214.18,362.65,212Z" transform="translate(99.09 119.82)"/><path class="cls-5" d="M344,226.42l3.12.48,1,.48c-2.09.67-1.92,3.41-3.85,4.22C344.16,229.87,344.07,228.15,344,226.42Z" transform="translate(99.09 119.82)"/><path class="cls-10" d="M383.05,166.48l-.75,1.74-2.54-.16c.05-.48.1-.95.14-1.43C380.88,165,381.92,164.94,383.05,166.48Z" transform="translate(99.09 119.82)"/><path class="cls-10" d="M348.09,222.91c-1.85-.2-2.42-2.25-4-2.8a3,3,0,0,1-.05-.85C346.72,219,347.53,220.8,348.09,222.91Z" transform="translate(99.09 119.82)"/><path class="cls-6" d="M335.63,190.62c.32-.76.72-1.42,1.64-1.5,1.16.4,2.11.87.73,2.14Z" transform="translate(99.09 119.82)"/><path class="cls-11" d="M379.9,166.63c0,.48-.09,1-.14,1.43l-1.76.26.42-1.58Z" transform="translate(99.09 119.82)"/><path class="cls-6" d="M388.28,164.6a1.92,1.92,0,0,1-2.45,1.48A1.78,1.78,0,0,1,388.28,164.6Z" transform="translate(99.09 119.82)"/><path class="cls-6" d="M326.85,203l.72-1.07c.18.4.36.79.55,1.19Z" transform="translate(99.09 119.82)"/><path class="cls-11" d="M348.11,227.38l-1-.48,1.94-.59Z" transform="translate(99.09 119.82)"/><path class="cls-7" d="M384,151.26l-.21.39.23-.37Z" transform="translate(99.09 119.82)"/><path class="cls-16" d="M342,178.6c-1.4-.25-2.62-.13-3.13,1.49l-2.94.14c-2-1.63-3.63-4.35-7-3.06l-2.7-.26c-2.18-.92-4.35-1.37-6.46.19-4.59-.11-9.08.19-12.9,3.19-6.23.9-9.13,6.45-13.59,9.81a6.5,6.5,0,0,0,.58,1.17l-.33,2.7c-1.73.95-3.51,1.71-5.56,1.26-1.52-3.39-4.38-5.67-7-8.07-2.29-2.11-3.25-4.27-2.07-7.22,6.66-2.72,8.64-8.67,9.88-14.89.57-2.88.25-6,.24-9,0-4.21-2.28-5.31-5.87-3.79a28.88,28.88,0,0,1-11.11,2.07c-3.85.07-5.49-1.1-5.2-5.12.31-4.3.17-8.63.23-12.95,2.23-3.27,3.56-7,6.57-9.92,3.33-3.19,6.41-3.7,9.63-.49a35,35,0,0,1,3.6,4.11,11,11,0,0,0,12.17,4.15,2.23,2.23,0,0,0,1.78-2c.33-2.62.73-5.23,1.1-7.84,1.21-.66.84-1.74.74-2.75a3.8,3.8,0,0,0-1.11-4.08,9.6,9.6,0,0,1-2.78-7.23c1.31-6.22,6.82-8.53,11.13-11.94l1.12-.08c7.11.13,14.16.22,20,5.29,3.75,3.22,3.75,6.24,1.19,10.35-1.67,2.68-5.35,4.28-4.91,8.21.16,5.37,4.5,7.89,7.63,11.24,1.29,4.2,12.49,7.23,15.35,4.13a1.59,1.59,0,0,0,.36-.91c.21-2.93,2.5-5,3.09-7.8l1.71.29c2.63,3.56,4.15,7.87,7.42,11-.26,1.85,2.08,2.47,2,4.24a8.7,8.7,0,0,1-2.11,6.81c-1.62,1.78-3.05,2.85-5.23.59a3.79,3.79,0,0,0-5.64-.33c-2.51-.08-4.15,1.61-6,3-3.11,1.54-4.17,6.51-2.07,9.9,1.42,2.29,5,3.43,4.19,6.83-.65,2.89-3.6,4.19-5.33,6.36A11.39,11.39,0,0,0,342,178.6Z" transform="translate(99.09 119.82)"/><path class="cls-6" d="M353.81,128.7c-.58,2.77-2.87,4.87-3.08,7.8a1.59,1.59,0,0,1-.36.91c-2.86,3.1-14.06.07-15.35-4.13,1.56-.08,2.75.81,4.1,1.4,5.81,2.55,9.37.14,10-6.2.2-2.1-1.79-5.13,1.91-6.23C352.63,124.11,350.73,127.48,353.81,128.7Z" transform="translate(99.09 119.82)"/><path class="cls-6" d="M363,140c-3.27-3.13-4.79-7.44-7.42-11,1.83-1.48-.89-2.45-.43-3.78,3.67-.16,5,2.89,5.51,5.3C361.24,133.73,362.74,136.7,363,140Z" transform="translate(99.09 119.82)"/><path class="cls-11" d="M338.08,112.39c-1.54-2.42-4.91-5.16,1.08-6.29,2.2,1.56,3.18,3.92,4.48,6.29Z" transform="translate(99.09 119.82)"/><path class="cls-8" d="M355.1,125.21c-.46,1.33,2.26,2.3.43,3.78l-1.71-.29c-3.09-1.22-1.19-4.59-2.8-6.45,1.64-.36,2.24,1,3.14,1.88a.91.91,0,0,0,.88,1Z" transform="translate(99.09 119.82)"/><path class="cls-6" d="M355,125.17a.91.91,0,0,1-.88-1C354.45,124.48,354.74,124.83,355,125.17Z" transform="translate(99.09 119.82)"/><path class="cls-8" d="M483,191.29l1-1c6,.92,1.8,5.27,2.62,8C486.23,195.48,482.57,194.47,483,191.29Z" transform="translate(99.09 119.82)"/><path class="cls-9" d="M547,323.23c7.62.14,7.62.14,10.83-4.38,2.35,5.39,1.29,7.33-4.18,7.28-2.62,0-5.06-.14-5.83,3.11H546l0,0c-.37-.84-.74-.73-1.11,0l-2.91-1c-1.89-4.41-1.31-8.66.82-12.81,0,1.82.15,3.64.08,5.45C542.75,324.4,544.09,325.14,547,323.23Z" transform="translate(99.09 119.82)"/><path class="cls-13" d="M544.91,329.29c.37-.74.74-.85,1.11,0Z" transform="translate(99.09 119.82)"/><path class="cls-13" d="M546,329.26h1.17C546.76,329.88,546.38,330.18,546,329.26Z" transform="translate(99.09 119.82)"/><path class="cls-9" d="M481.18,272.52c-.8,2.05-.26,4.83-3.13,5.76C478,275.79,478.56,273.58,481.18,272.52Z" transform="translate(99.09 119.82)"/><path class="cls-11" d="M471.42,300.51c-2-1.61-1.87-3.38-.38-5.25C472.58,296.91,472.2,298.69,471.42,300.51Z" transform="translate(99.09 119.82)"/><path class="cls-9" d="M486.09,268.34l-1.84,1c-.25-2.08,1.16-2.64,2.76-3C486.7,267,486.4,267.67,486.09,268.34Z" transform="translate(99.09 119.82)"/><path class="cls-9" d="M478,278.33a2,2,0,0,1-.94,2A1.69,1.69,0,0,1,478,278.33Z" transform="translate(99.09 119.82)"/><path class="cls-9" d="M484.07,269.57l-.76.78Z" transform="translate(99.09 119.82)"/><path class="cls-2" d="M473.85,345.29c-3.42,0-5.24-3.55-8.74-3.86-1.47-.13-1.48-3,.14-3.49,3.56-1,3.63-3.09,2.81-6-.39-1.33.4-2.58,1-3.77l6.23,11.16Q474.57,342.32,473.85,345.29Z" transform="translate(99.09 119.82)"/><path class="cls-8" d="M479,330.27c0-1,0-2,0-3.08,1.67-.41,3.29-.39,4.1,1.38a2.4,2.4,0,0,1-.6,2.12C481.29,331.78,480.1,331,479,330.27Z" transform="translate(99.09 119.82)"/><path class="cls-2" d="M472,373.21c-.43-2,1.17-2.9,2.17-4.13,1.92,2.08.45,3.32-1.12,4.54Z" transform="translate(99.09 119.82)"/><path class="cls-9" d="M473.41,325.84a2.57,2.57,0,0,1,.42,1.05c0,.76-.52,1.18-1.22.78-.28-.16-.42-.82-.38-1.23S472.6,325.55,473.41,325.84Z" transform="translate(99.09 119.82)"/><path class="cls-9" d="M476.34,330.82,476,331l-.26-.47c.13,0,.28-.09.39,0S476.28,330.72,476.34,330.82Z" transform="translate(99.09 119.82)"/><path class="cls-9" d="M475.19,323.16l-.52.44c.15-.17.3-.34.44-.52Z" transform="translate(99.09 119.82)"/><path class="cls-9" d="M423,150.78a1.67,1.67,0,0,0,.16.58H423c-1.43,0-3-.54-4.08,1-1.71-.37-2.73.48-3.37,2.12-.6-5.25,1.84-8,6.43-7.42C421.29,148.57,420.64,150.08,423,150.78Z" transform="translate(99.09 119.82)"/><path class="cls-8" d="M423,150.78c-2.35-.7-1.7-2.21-1-3.74l1.94,0a6.55,6.55,0,0,0,6.12-1C429.67,151.81,429.38,152,423,150.78Z" transform="translate(99.09 119.82)"/><path class="cls-5" d="M418.93,152.34c1.07-1.52,2.65-1,4.08-1C422.21,154,420.75,153.92,418.93,152.34Z" transform="translate(99.09 119.82)"/><path class="cls-11" d="M486.73,249.46q.22,2.89.43,5.79h-4.7C483.31,252.53,484.18,250.39,486.73,249.46Z" transform="translate(99.09 119.82)"/><path class="cls-10" d="M450.87,374.44l4.16-.06c-1.12,1.31-2.68.73-4.06.95C451,375,450.92,374.74,450.87,374.44Z" transform="translate(99.09 119.82)"/><path class="cls-10" d="M344.92,354.23c7.66-2,15.49-.32,23.22-1a16.23,16.23,0,0,0,11.11,3.16c21.25-1,42.35,3.4,63.62,2-.87,1.07-2.09.87-3.23.87-16,0-31.95.49-47.87-1A442.3,442.3,0,0,0,345,356.26c-.08-.69-.17-1.38-.26-2.08Z" transform="translate(99.09 119.82)"/><path class="cls-2" d="M344.76,354.18c.09.7.18,1.39.26,2.08H335C338.09,354.85,341.45,354.63,344.76,354.18Z" transform="translate(99.09 119.82)"/><path class="cls-2" d="M454.26,325.17c-.43.22-.81.57-1.2.59-.87,0-1-.66-.81-1.27.09-.32.6-.51.93-.75Z" transform="translate(99.09 119.82)"/><path class="cls-5" d="M364,185.24h3.18c2.81,2.17,5.3,4.77,8.59,6.26,1,5.92,3.38,11.58,3.32,17.7l-.28.15-1.66-.11c-1.88-1.46-2.09-3.6-2.2-5.72-.18-3.64-2.7-6.2-4.12-9.26l-.86-.9c-2.28-2.22-4.93-4.1-6.34-7.09a.92.92,0,0,0,.11-.79Z" transform="translate(99.09 119.82)"/><path class="cls-6" d="M379.13,209.21c1.68.11,2.08-1.28,2.61-2.37.83-1.72,1.89-1.29,3.08-.53,0,2.83,0,5.66.11,8.49.14,3.08-1.41,3.78-4.07,3.12a15.08,15.08,0,0,1-2-8.56Z" transform="translate(99.09 119.82)"/><path class="cls-12" d="M378.85,209.36a15.08,15.08,0,0,0,2,8.56c-2.33.57-3.94.25-3.74-2.74.13-2,.06-4,.07-5.93Z" transform="translate(99.09 119.82)"/><path class="cls-8" d="M360.08,181.33c1.35-.47,2.74-1.74,4.12-.69s-.44,2.36-.22,3.6l-1.11.28-3.3-1.16Z" transform="translate(99.09 119.82)"/><path class="cls-9" d="M378.88,232.56a1.73,1.73,0,0,1-2.71.05Z" transform="translate(99.09 119.82)"/><path class="cls-5" d="M362.87,184.52l1.11-.28.06,1-.25.25a1.85,1.85,0,0,0-.81,0A2.29,2.29,0,0,1,362.87,184.52Z" transform="translate(99.09 119.82)"/><path class="cls-13" d="M370,193.37l.86.9Z" transform="translate(99.09 119.82)"/><path class="cls-13" d="M363,185.49a1.85,1.85,0,0,1,.81,0,1,1,0,0,1-.12.79Z" transform="translate(99.09 119.82)"/><path class="cls-6" d="M398,200.26a2,2,0,0,1-1-1.93A1.95,1.95,0,0,1,398,200.26Z" transform="translate(99.09 119.82)"/><path class="cls-6" d="M397,198.24l-.92-1Z" transform="translate(99.09 119.82)"/><path class="cls-15" d="M351.88,296.42c0-.44,0-.87,0-1.31,7.24-1.76,14.59-.51,21.88-.79,3.83-.15,7.66-.05,11.49,0,1.21,0,2.4.47,2.39,2a1.8,1.8,0,0,1-2,1.81c-9.6-.76-19.16,1.66-28.78.34C354.93,298.21,353.51,297.16,351.88,296.42Z" transform="translate(99.09 119.82)"/><path class="cls-2" d="M363.4,349.28c-.71,2.45-2.74,2-4.49,2-4.63,0-9.27,0-13.9,0a4.4,4.4,0,0,1,0-1c3.79-2.8,7.92-1.75,12.06-1.16A48,48,0,0,0,363.4,349.28Z" transform="translate(99.09 119.82)"/><path class="cls-2" d="M311.08,98.19l-1.12.08-1-.94,2.26,0A6,6,0,0,0,311.08,98.19Z" transform="translate(99.09 119.82)"/><path class="cls-7" d="M293.92,191.27a6.5,6.5,0,0,1-.58-1.17c4.46-3.36,7.36-8.91,13.59-9.81a2.67,2.67,0,0,0,1.17,2.18c-3.14,4.12-6.93,7.36-12,8.81Z" transform="translate(99.09 119.82)"/><path class="cls-13" d="M298.83,110.21a9.6,9.6,0,0,0,2.78,7.23,3.8,3.8,0,0,1,1.11,4.08c-4.92-2.19-4.62-7-5.54-11.15Z" transform="translate(99.09 119.82)"/><path class="cls-15" d="M547,323.23c-2.9,1.91-4.24,1.17-4.09-2.34.07-1.81,0-3.63-.08-5.45,1.67-4.79-2.72-7.45-3.93-11.23-.88-2.76-.36-4.4,3-4,1.3.14,2.86.09,2.92-1.8.1-3,0-6,0-9,0-1.69,0-3.39.05-5.08.3-1.5-1.5-3.06.13-4.52,2.08.69,4.75-1.3,6.41,1.37-.59,7.2-1.09,14.38.43,21.55.36,1.73,0,3.61-.07,5.42-2.1,1.84-1.83,4.53-2.49,6.89C548.58,317.72,547,320.25,547,323.23Z" transform="translate(99.09 119.82)"/><path class="cls-15" d="M535,288.28c1.64-.07,3.28-1.4,4.91,0-1.67,2.83-4.77,4.87-4,9,.82,4.32-1.52,4.75-4.87,3.2-2.23-.23-3.87-2.29-6.26-2l-.83-.16h0a4.06,4.06,0,0,0-2.69-2.19l.57-2.82c2.06-.35,4.17-1.16,6.18-1C531.55,292.65,533.56,291.07,535,288.28Z" transform="translate(99.09 119.82)"/><path class="cls-10" d="M531.09,300.44c3.35,1.55,5.69,1.12,4.87-3.2-.78-4.1,2.32-6.14,4-9a9.66,9.66,0,0,0,4.95,1.06c0,3,0,6-.06,9-.06,1.89-1.62,1.94-2.92,1.8-3.39-.35-3.91,1.29-3,4C535.93,303.69,532.63,303.89,531.09,300.44Z" transform="translate(99.09 119.82)"/><path class="cls-5" d="M517.1,297c-4.91-.74-9.73-1.36-14.59.79-2.52,1.12-4.63.17-4.47-3.21,1.5,1.51,3.31,2.53,5.25,1.24,1.68-1.11,0-2.69-.08-4.07,0-.82-.12-1.65-.18-2.47,3.34,6,9,3.45,13.89,3.86C515.22,294.52,515.85,295.78,517.1,297Z" transform="translate(99.09 119.82)"/><path class="cls-15" d="M503,289.29c.06.82.15,1.65.18,2.47.05,1.38,1.76,3,.08,4.07-1.94,1.29-3.75.27-5.25-1.24C498.06,291.28,499.21,289,503,289.29Z" transform="translate(99.09 119.82)"/><path class="cls-12" d="M517.1,297c-1.25-1.23-1.88-2.49-.18-3.86l2.09-.47a2.94,2.94,0,0,0,2.87.59l-.57,2.83h-.21C519.69,296.06,518.66,297.7,517.1,297Z" transform="translate(99.09 119.82)"/><path class="cls-6" d="M510.64,277c-.1,1.12-.88,1.31-1.73,1.25a3.53,3.53,0,0,1-3.37-2.42c-.4-1.39.92-1.53,1.88-1.43A3.84,3.84,0,0,1,510.64,277Z" transform="translate(99.09 119.82)"/><path class="cls-7" d="M521.1,296.1h.21a4,4,0,0,1,2.69,2.18C522.56,298.19,521,298.3,521.1,296.1Z" transform="translate(99.09 119.82)"/><path class="cls-7" d="M516.63,289l-.36.83c-.28-.12-.7-.19-.79-.39s.2-.54.32-.81Z" transform="translate(99.09 119.82)"/><path class="cls-7" d="M524,298.27l.83.16C524.44,299,524.21,298.65,524,298.27Z" transform="translate(99.09 119.82)"/><path class="cls-5" d="M549.35,315c.66-2.36.39-5,2.49-6.89l1.07.31c.26,2.1-.3,4.35,1.16,6.32C552.52,315.66,550.91,315,549.35,315Z" transform="translate(99.09 119.82)"/><path class="cls-9" d="M564.56,329c-.11.25-.17.64-.34.7s-.49-.18-.74-.29c.11-.25.17-.64.34-.7S564.31,328.92,564.56,329Z" transform="translate(99.09 119.82)"/><path class="cls-11" d="M308.1,182.47a2.67,2.67,0,0,1-1.17-2.18c3.82-3,8.31-3.3,12.9-3.19l6.46-.19,2.7.26c3.24,1.7,1.42,3.24-.14,4.79-3.1,1.17-6.17-.32-9.14-.6A33.58,33.58,0,0,0,308.1,182.47Z" transform="translate(99.09 119.82)"/><path class="cls-6" d="M328.85,182c1.56-1.55,3.38-3.09.14-4.79,3.34-1.29,4.92,1.43,7,3.06-1.94.86-.29,3.56-2.25,4.41C333.31,181.53,331.31,181.33,328.85,182Z" transform="translate(99.09 119.82)"/><path class="cls-11" d="M346,154.26c1.81-1.35,3.45-3,6-3-1,2.87-1.92,5.93-6.08,5Z" transform="translate(99.09 119.82)"/><path class="cls-6" d="M326.29,176.91l-6.46.19C321.94,175.54,324.11,176,326.29,176.91Z" transform="translate(99.09 119.82)"/></svg>